<?xml version="1.0" encoding="UTF-8" standalone="no"?>
<!-- Created with Inkscape (http://www.inkscape.org/) -->

<svg
   width="210mm"
   height="297mm"
   viewBox="0 0 210 297"
   version="1.1"
   id="svg1"
   xml:space="preserve"
   inkscape:version="1.4 (86a8ad7, 2024-10-11)"
   sodipodi:docname="logo.svg"
   inkscape:export-filename="logo.svg"
   inkscape:export-xdpi="300"
   inkscape:export-ydpi="300"
   xmlns:inkscape="http://www.inkscape.org/namespaces/inkscape"
   xmlns:sodipodi="http://sodipodi.sourceforge.net/DTD/sodipodi-0.dtd"
   xmlns:xlink="http://www.w3.org/1999/xlink"
   xmlns="http://www.w3.org/2000/svg"
   xmlns:svg="http://www.w3.org/2000/svg"><sodipodi:namedview
     id="namedview1"
     pagecolor="#ffffff"
     bordercolor="#111111"
     borderopacity="1"
     inkscape:showpageshadow="0"
     inkscape:pageopacity="0"
     inkscape:pagecheckerboard="1"
     inkscape:deskcolor="#d1d1d1"
     inkscape:document-units="mm"
     inkscape:zoom="0.35355339"
     inkscape:cx="-45.254834"
     inkscape:cy="671.75144"
     inkscape:window-width="2560"
     inkscape:window-height="1369"
     inkscape:window-x="1912"
     inkscape:window-y="-8"
     inkscape:window-maximized="1"
     inkscape:current-layer="g209" /><defs
     id="defs1"><linearGradient
   id="linearGradient169"
   inkscape:collect="always"><stop
     style="stop-color:#ffffff;stop-opacity:1;"
     offset="0"
     id="stop169" /><stop
     style="stop-color:#ffffff;stop-opacity:0;"
     offset="1"
     id="stop170" /></linearGradient><linearGradient
   inkscape:collect="always"
   xlink:href="#linearGradient169"
   id="linearGradient170"
   x1="93.168125"
   y1="83.723966"
   x2="120.9414"
   y2="83.723966"
   gradientUnits="userSpaceOnUse" /><g
   id="g3345">
      <g
   id="g5943">
        <path
   d="M 2.609375,-3.796875 H 4.625 c 1.40625,0 2.671875,-0.953125 2.671875,-2.15625 0,-1.15625 -1.15625,-2.203125 -2.765625,-2.203125 H 0.5 v 0.34375 h 0.234375 c 0.875,0 0.90625,0.109375 0.90625,0.5625 v 6.34375 c 0,0.4375 -0.03125,0.5625 -0.90625,0.5625 H 0.5 V 0 c 0.28125,-0.03125 1.265625,-0.03125 1.609375,-0.03125 0.359375,0 1.34375,0 1.625,0.03125 V -0.34375 H 3.5 c -0.859375,0 -0.890625,-0.125 -0.890625,-0.5625 z M 2.578125,-4.09375 v -3.25 c 0,-0.390625 0.03125,-0.46875 0.546875,-0.46875 H 4.25 c 1.9375,0 1.9375,1.34375 1.9375,1.859375 0,0.5 0,1.859375 -1.9375,1.859375 z m 0,0"
   id="path2014" />
      </g>
      <g
   id="g6943">
        <path
   d="m 5.484375,-2.5625 c 0,-1.53125 -1.171875,-2.765625 -2.5625,-2.765625 -1.421875,0 -2.5625,1.265625 -2.5625,2.765625 0,1.53125 1.1875,2.6875 2.5625,2.6875 1.40625,0 2.5625,-1.171875 2.5625,-2.6875 z m -2.5625,2.421875 c -0.4375,0 -0.96875,-0.1875 -1.3125,-0.78125 -0.328125,-0.53125 -0.34375,-1.234375 -0.34375,-1.75 0,-0.453125 0,-1.171875 0.375,-1.71875 C 1.96875,-4.90625 2.5,-5.09375 2.921875,-5.09375 c 0.453125,0 0.96875,0.21875 1.28125,0.6875 0.375,0.546875 0.375,1.296875 0.375,1.734375 0,0.421875 0,1.171875 -0.3125,1.734375 C 3.9375,-0.375 3.375,-0.140625 2.921875,-0.140625 Z m 0,0"
   id="path5679" />
      </g>
      <g
   id="g6043">
        <path
   d="M 2.0625,-8.296875 0.390625,-8.15625 v 0.34375 c 0.8125,0 0.90625,0.078125 0.90625,0.671875 v 6.25 c 0,0.546875 -0.125,0.546875 -0.90625,0.546875 V 0 c 0.34375,-0.03125 0.921875,-0.03125 1.28125,-0.03125 0.359375,0 0.953125,0 1.296875,0.03125 v -0.34375 c -0.765625,0 -0.90625,0 -0.90625,-0.546875 z m 0,0"
   id="path584" />
      </g>
      <g
   id="g4457">
        <path
   d="m 4.84375,-4 c 0.3125,-0.796875 0.875,-0.8125 1.109375,-0.8125 V -5.15625 C 5.609375,-5.125 5.4375,-5.125 5.0625,-5.125 c -0.28125,0 -0.3125,0 -0.96875,-0.03125 V -4.8125 C 4.53125,-4.78125 4.640625,-4.5 4.640625,-4.296875 4.640625,-4.1875 4.609375,-4.125 4.5625,-4 L 3.34375,-0.984375 2.015625,-4.25 c -0.0625,-0.15625 -0.0625,-0.234375 -0.0625,-0.25 0,-0.3125 0.40625,-0.3125 0.65625,-0.3125 V -5.15625 C 2.296875,-5.125 1.703125,-5.125 1.375,-5.125 c -0.453125,0 -0.484375,0 -1.15625,-0.03125 v 0.34375 c 0.6875,0 0.78125,0.0625 0.9375,0.4375 L 2.9375,0 C 2.421875,1.265625 2.421875,1.296875 2.359375,1.390625 2.15625,1.75 1.84375,2.203125 1.296875,2.203125 c -0.359375,0 -0.59375,-0.21875 -0.59375,-0.21875 0,0 0.421875,-0.046875 0.421875,-0.46875 0,-0.28125 -0.234375,-0.4375 -0.4375,-0.4375 -0.203125,0 -0.453125,0.109375 -0.453125,0.46875 0,0.453125 0.4375,0.890625 1.0625,0.890625 0.671875,0 1.171875,-0.578125 1.46875,-1.34375 z m 0,0"
   id="path4066" />
      </g>
      <g
   id="g860">
        <path
   d="m 7.296875,-6.984375 c 0.109375,-0.296875 0.3125,-0.828125 1.25,-0.828125 v -0.34375 c -0.609375,0.015625 -0.640625,0.015625 -1.09375,0.015625 -0.328125,0 -0.921875,0 -1.21875,-0.015625 v 0.34375 c 0.609375,0 0.78125,0.34375 0.78125,0.578125 0,0.078125 0,0.09375 -0.078125,0.265625 l -2.234375,5.890625 -2.34375,-6.21875 c -0.0625,-0.125 -0.0625,-0.15625 -0.0625,-0.171875 0,-0.34375 0.59375,-0.34375 0.890625,-0.34375 V -8.15625 C 2.90625,-8.140625 2,-8.140625 1.65625,-8.140625 c -0.34375,0 -1.15625,0 -1.4375,-0.015625 v 0.34375 c 0.734375,0 0.921875,0 1.109375,0.46875 L 4.125,0.03125 C 4.1875,0.1875 4.203125,0.25 4.375,0.25 4.546875,0.25 4.546875,0.21875 4.640625,0.015625 Z m 0,0"
   id="path3238" />
      </g>
      <g
   id="g6322">
        <path
   d="m 4.578125,-2.765625 c 0.265625,0 0.28125,0 0.28125,-0.234375 0,-1.203125 -0.640625,-2.328125 -2.09375,-2.328125 -1.359375,0 -2.40625,1.234375 -2.40625,2.703125 0,1.578125 1.21875,2.75 2.546875,2.75 1.421875,0 1.953125,-1.296875 1.953125,-1.546875 0,-0.078125 -0.046875,-0.125 -0.125,-0.125 -0.09375,0 -0.125,0.0625 -0.140625,0.125 -0.3125,1 -1.109375,1.28125 -1.625,1.28125 -0.5,0 -1.703125,-0.34375 -1.703125,-2.40625 v -0.21875 z M 1.28125,-3 c 0.09375,-1.875 1.140625,-2.09375 1.484375,-2.09375 1.28125,0 1.34375,1.6875 1.359375,2.09375 z m 0,0"
   id="path4240" />
      </g>
      <g
   id="g6326">
        <path
   d="m 4.328125,-4.421875 c -0.140625,0 -0.59375,0 -0.59375,0.484375 0,0.296875 0.203125,0.5 0.5,0.5 0.265625,0 0.5,-0.171875 0.5,-0.515625 0,-0.796875 -0.84375,-1.375 -1.8125,-1.375 -1.390625,0 -2.5,1.234375 -2.5,2.75 0,1.53125 1.140625,2.703125 2.5,2.703125 1.578125,0 1.9375,-1.4375 1.9375,-1.546875 0,-0.109375 -0.09375,-0.109375 -0.125,-0.109375 -0.109375,0 -0.125,0.03125 -0.15625,0.1875 C 4.3125,-0.5 3.671875,-0.140625 3.03125,-0.140625 c -0.734375,0 -1.703125,-0.640625 -1.703125,-2.453125 0,-1.984375 1.015625,-2.46875 1.609375,-2.46875 0.453125,0 1.109375,0.171875 1.390625,0.640625 z m 0,0"
   id="path2078" />
      </g>
      <g
   id="g4683">
        <path
   d="M 2.75,-7.9375 C 2.671875,-8.15625 2.65625,-8.15625 2.375,-8.15625 H 0.53125 v 0.34375 h 0.234375 c 0.859375,0 0.890625,0.109375 0.890625,0.5625 v 6.015625 c 0,0.328125 0,0.890625 -1.125,0.890625 V 0 c 0.3125,-0.03125 0.9375,-0.03125 1.28125,-0.03125 0.328125,0 0.953125,0 1.265625,0.03125 v -0.34375 c -1.125,0 -1.125,-0.5625 -1.125,-0.890625 V -7.75 L 4.84375,-0.234375 C 4.890625,-0.09375 4.921875,0 5.046875,0 5.15625,0 5.171875,-0.0625 5.25,-0.234375 L 8.15625,-7.8125 v 6.90625 c 0,0.4375 -0.03125,0.5625 -0.890625,0.5625 H 7.03125 V 0 c 0.265625,-0.03125 1.234375,-0.03125 1.578125,-0.03125 0.34375,0 1.296875,0 1.578125,0.03125 v -0.34375 h -0.25 c -0.859375,0 -0.890625,-0.125 -0.890625,-0.5625 V -7.25 c 0,-0.453125 0.03125,-0.5625 0.890625,-0.5625 h 0.25 V -8.15625 H 8.328125 c -0.265625,0 -0.265625,0 -0.375,0.234375 L 5.359375,-1.125 Z m 0,0"
   id="path5765" />
      </g>
      <g
   id="g6574">
        <path
   d="m 3.921875,-5.0625 c 0,-0.203125 0,-0.265625 -0.125,-0.265625 -0.09375,0 -0.3125,0.265625 -0.40625,0.375 -0.359375,-0.3125 -0.734375,-0.375 -1.125,-0.375 -1.4375,0 -1.875,0.78125 -1.875,1.4375 0,0.140625 0,0.5625 0.453125,0.96875 0.390625,0.34375 0.796875,0.421875 1.34375,0.53125 0.65625,0.125 0.8125,0.171875 1.109375,0.40625 0.21875,0.171875 0.375,0.4375 0.375,0.78125 C 3.671875,-0.6875 3.375,-0.125 2.3125,-0.125 1.53125,-0.125 0.953125,-0.578125 0.6875,-1.765625 0.640625,-1.984375 0.640625,-2 0.640625,-2.015625 0.609375,-2.0625 0.5625,-2.0625 0.53125,-2.0625 0.390625,-2.0625 0.390625,-2 0.390625,-1.78125 v 1.625 c 0,0.21875 0,0.28125 0.125,0.28125 0.0625,0 0.0625,-0.015625 0.265625,-0.265625 C 0.84375,-0.234375 0.84375,-0.25 1.03125,-0.4375 1.484375,0.125 2.125,0.125 2.328125,0.125 c 1.25,0 1.875,-0.703125 1.875,-1.640625 0,-0.640625 -0.390625,-1.03125 -0.5,-1.140625 -0.421875,-0.375 -0.75,-0.4375 -1.546875,-0.578125 -0.34375,-0.078125 -1.21875,-0.25 -1.21875,-0.96875 0,-0.359375 0.25,-0.90625 1.328125,-0.90625 1.296875,0 1.375,1.109375 1.390625,1.46875 0.015625,0.109375 0.09375,0.109375 0.140625,0.109375 0.125,0 0.125,-0.0625 0.125,-0.28125 z m 0,0"
   id="path3168" />
      </g>
      <g
   id="g1526">
        <path
   d="m 5.3125,-2.90625 c 0,-1.109375 0,-1.4375 -0.265625,-1.828125 -0.34375,-0.46875 -0.90625,-0.53125 -1.3125,-0.53125 C 2.703125,-5.265625 2.21875,-4.5 2.0625,-4.125 H 2.046875 V -8.296875 L 0.375,-8.15625 v 0.34375 c 0.8125,0 0.921875,0.078125 0.921875,0.671875 v 6.25 c 0,0.546875 -0.140625,0.546875 -0.921875,0.546875 V 0 c 0.3125,-0.03125 0.96875,-0.03125 1.296875,-0.03125 0.34375,0 1,0 1.296875,0.03125 v -0.34375 c -0.75,0 -0.90625,0 -0.90625,-0.546875 v -2.21875 c 0,-1.25 0.828125,-1.921875 1.578125,-1.921875 0.734375,0 0.90625,0.609375 0.90625,1.34375 v 2.796875 c 0,0.546875 -0.140625,0.546875 -0.90625,0.546875 V 0 c 0.296875,-0.03125 0.953125,-0.03125 1.28125,-0.03125 0.34375,0 1,0 1.3125,0.03125 v -0.34375 c -0.609375,0 -0.90625,0 -0.921875,-0.359375 z m 0,0"
   id="path9384" />
      </g>
    </g>
  <g
   id="g5364">
      <g
   id="g3157">
        <path
   d="M 4.90625,-7.953125 H 8.875 c 3.1875,0 5.515625,-2.078125 5.515625,-4.4375 0,-2.359375 -2.265625,-4.53125 -5.515625,-4.53125 H 1.28125 v 0.640625 c 1.71875,0 1.984375,0 1.984375,1.109375 v 13.40625 c 0,1.125 -0.265625,1.125 -1.984375,1.125 V 0 C 2,-0.046875 3.328125,-0.046875 4.09375,-0.046875 c 0.765625,0 2.078125,0 2.796875,0.046875 v -0.640625 c -1.71875,0 -1.984375,0 -1.984375,-1.125 z M 4.859375,-8.46875 v -6.84375 c 0,-0.84375 0.046875,-0.96875 1.03125,-0.96875 H 8.40625 c 3.1875,0 4.109375,1.828125 4.109375,3.890625 0,2.25 -1.09375,3.921875 -4.109375,3.921875 z m 0,0"
   id="path8877" />
      </g>
      <g
   id="g6104">
        <path
   d="m 10.6875,-5.296875 c 0,-3.171875 -2.3125,-5.65625 -5.015625,-5.65625 -2.703125,0 -5,2.484375 -5,5.65625 0,3.109375 2.296875,5.5 5,5.5 2.703125,0 5.015625,-2.390625 5.015625,-5.5 z M 5.671875,-0.25 c -1.15625,0 -2.15625,-0.6875 -2.71875,-1.65625 C 2.328125,-3.015625 2.25,-4.40625 2.25,-5.5 c 0,-1.046875 0.046875,-2.328125 0.703125,-3.453125 0.484375,-0.8125 1.453125,-1.609375 2.71875,-1.609375 1.125,0 2.0625,0.625 2.65625,1.5 0.765625,1.15625 0.765625,2.796875 0.765625,3.5625 0,0.96875 -0.046875,2.453125 -0.71875,3.640625 C 7.6875,-0.71875 6.609375,-0.25 5.671875,-0.25 Z m 0,0"
   id="path5095" />
      </g>
      <g
   id="g7464">
        <path
   d="m 3.796875,-17.203125 -2.953125,0.28125 v 0.640625 c 1.453125,0 1.6875,0.15625 1.6875,1.34375 v 13.234375 c 0,0.9375 -0.109375,1.0625 -1.6875,1.0625 V 0 c 0.59375,-0.046875 1.6875,-0.046875 2.296875,-0.046875 0.65625,0 1.734375,0 2.34375,0.046875 v -0.640625 c -1.59375,0 -1.6875,-0.109375 -1.6875,-1.0625 z m 0,0"
   id="path2949" />
      </g>
      <g
   id="g696">
        <path
   d="M 9.671875,-8.46875 C 10.28125,-9.984375 11.40625,-10.015625 11.75,-10.015625 v -0.640625 c -0.46875,0.03125 -1.09375,0.04687 -1.5625,0.04687 -0.515625,0 -1.34375,0 -1.84375,-0.04687 v 0.640625 C 9.296875,-9.9375 9.3125,-9.25 9.3125,-9.046875 c 0,0.25 -0.046875,0.375 -0.171875,0.671875 L 6.4375,-1.6875 3.5,-8.921875 c -0.125,-0.296875 -0.125,-0.46875 -0.125,-0.5 0,-0.546875 0.5625,-0.59375 1.15625,-0.59375 v -0.640625 c -0.59375,0.04687 -1.65625,0.04687 -2.28125,0.04687 -0.65625,0 -1.453125,0 -2,-0.04687 v 0.640625 c 1.34375,0 1.484375,0.125 1.8125,0.921875 L 5.75,0 C 4.640625,2.921875 3.984375,4.640625 2.421875,4.640625 2.15625,4.640625 1.53125,4.5625 1.09375,4.109375 1.65625,4.0625 1.90625,3.71875 1.90625,3.296875 1.90625,2.875 1.609375,2.5 1.109375,2.5 c -0.546875,0 -0.8125,0.375 -0.8125,0.828125 0,0.984375 1.015625,1.703125 2.125,1.703125 1.4375,0 2.34375,-1.390625 2.828125,-2.625 z m 0,0"
   id="path4721" />
      </g>
      <g
   id="g3008">
        <path
   d="M 14.625,-14.640625 C 14.84375,-15.1875 15.234375,-16.25 16.90625,-16.28125 v -0.640625 c -0.578125,0.04687 -1.21875,0.04687 -1.84375,0.04687 -0.59375,0 -1.609375,0 -2.171875,-0.04687 v 0.640625 c 1.234375,0.07813 1.28125,0.9375 1.28125,1.09375 0,0.265625 -0.07813,0.4375 -0.140625,0.640625 L 9.140625,-1.828125 4.046875,-15.1875 c -0.078125,-0.171875 -0.125,-0.296875 -0.125,-0.421875 0,-0.671875 0.984375,-0.671875 1.5,-0.671875 v -0.640625 C 4.640625,-16.875 3.46875,-16.875 2.65625,-16.875 c -0.65625,0 -1.8125,0 -2.40625,-0.04687 v 0.640625 c 1.4375,0 1.703125,0.09375 2,0.890625 L 8.15625,0 C 8.28125,0.34375 8.296875,0.390625 8.578125,0.390625 8.84375,0.390625 8.875,0.34375 9,0 Z m 0,0"
   id="path5160" />
      </g>
      <g
   id="g1525">
        <path
   d="m 9.4375,-5.828125 c 0.109375,-0.09375 0.109375,-0.140625 0.109375,-0.390625 0,-2.53125 -1.34375,-4.734375 -4.171875,-4.734375 -2.625,0 -4.703125,2.5 -4.703125,5.546875 0,3.21875 2.34375,5.609375 4.984375,5.609375 2.765625,0 3.859375,-2.625 3.859375,-3.15625 C 9.515625,-3.125 9.375,-3.125 9.3125,-3.125 9.140625,-3.125 9.125,-3.078125 9.015625,-2.78125 8.46875,-1.09375 7.109375,-0.25 5.828125,-0.25 4.765625,-0.25 3.6875,-0.84375 3.015625,-1.9375 2.25,-3.203125 2.25,-4.65625 2.25,-5.828125 Z M 2.28125,-6.1875 c 0.171875,-3.578125 2.078125,-4.375 3.078125,-4.375 1.671875,0 2.8125,1.59375 2.84375,4.375 z m 0,0"
   id="path7269" />
      </g>
      <g
   id="g2326">
        <path
   d="m 8.65625,-8.671875 c -0.484375,0 -1.171875,0 -1.171875,0.859375 0,0.703125 0.5625,0.90625 0.890625,0.90625 0.171875,0 0.890625,-0.078125 0.890625,-0.953125 0,-1.75 -1.6875,-3.09375 -3.59375,-3.09375 -2.625,0 -4.859375,2.421875 -4.859375,5.59375 0,3.296875 2.328125,5.5625 4.859375,5.5625 3.078125,0 3.84375,-2.859375 3.84375,-3.125 0,-0.09375 -0.03125,-0.171875 -0.203125,-0.171875 -0.171875,0 -0.1875,0.015625 -0.296875,0.34375 -0.640625,2 -2.046875,2.5 -3.125,2.5 -1.578125,0 -3.484375,-1.453125 -3.484375,-5.125 0,-3.765625 1.828125,-5.125 3.296875,-5.125 0.96875,0 2.40625,0.46875 2.953125,1.828125 z m 0,0"
   id="path5134" />
      </g>
      <g
   id="g8068">
        <path
   d="M 5.171875,-16.53125 C 5.03125,-16.90625 5,-16.921875 4.484375,-16.921875 H 1.3125 v 0.640625 c 1.703125,0 1.984375,0 1.984375,1.109375 v 12.75 c 0,0.609375 0,1.78125 -1.984375,1.78125 V 0 c 0.578125,-0.046875 1.609375,-0.046875 2.234375,-0.046875 0.609375,0 1.65625,0 2.234375,0.046875 v -0.640625 c -1.984375,0 -1.984375,-1.171875 -1.984375,-1.78125 V -16.1875 H 3.8125 L 9.640625,-0.390625 C 9.734375,-0.15625 9.78125,0 9.984375,0 c 0.203125,0 0.25,-0.15625 0.34375,-0.390625 l 5.875,-15.921875 h 0.03125 v 14.546875 c 0,1.125 -0.28125,1.125 -1.984375,1.125 V 0 c 0.671875,-0.046875 2,-0.046875 2.71875,-0.046875 0.71875,0 2.09375,0 2.75,0.046875 v -0.640625 c -1.703125,0 -1.96875,0 -1.96875,-1.125 v -13.40625 c 0,-1.109375 0.265625,-1.109375 1.96875,-1.109375 v -0.640625 h -3.140625 c -0.515625,0 -0.546875,0.01563 -0.6875,0.390625 L 10.53125,-2 Z m 0,0"
   id="path59-1" />
      </g>
      <g
   id="g2786">
        <path
   d="m 7.65625,-10.453125 c 0,-0.453125 -0.03125,-0.46875 -0.171875,-0.46875 -0.09375,0 -0.125,0.01563 -0.421875,0.390625 -0.078125,0.09375 -0.296875,0.34375 -0.375,0.4375 -0.796875,-0.828125 -1.90625,-0.859375 -2.328125,-0.859375 -2.75,0 -3.734375,1.4375 -3.734375,2.875 0,2.234375 2.515625,2.75 3.234375,2.90625 1.5625,0.3125 2.109375,0.40625 2.640625,0.859375 0.3125,0.296875 0.859375,0.84375 0.859375,1.734375 0,1.046875 -0.59375,2.375 -2.875,2.375 -2.15625,0 -2.921875,-1.625 -3.375,-3.8125 -0.0625,-0.34375 -0.0625,-0.375 -0.265625,-0.375 -0.203125,0 -0.21875,0.03125 -0.21875,0.53125 v 3.5625 c 0,0.453125 0.015625,0.46875 0.171875,0.46875 0.125,0 0.140625,-0.015625 0.265625,-0.21875 0.15625,-0.21875 0.53125,-0.828125 0.671875,-1.0625 0.5,0.65625 1.359375,1.3125 2.75,1.3125 C 6.9375,0.203125 8.25,-1.140625 8.25,-3.078125 8.25,-4.34375 7.578125,-5 7.265625,-5.296875 6.515625,-6.078125 5.65625,-6.25 4.609375,-6.4375 3.25,-6.734375 1.515625,-7.09375 1.515625,-8.59375 c 0,-0.65625 0.34375,-2.015625 2.84375,-2.015625 2.65625,0 2.796875,2.484375 2.859375,3.28125 0.015625,0.109375 0.140625,0.140625 0.21875,0.140625 0.21875,0 0.21875,-0.078125 0.21875,-0.5 z m 0,0"
   id="path3876" />
      </g>
      <g
   id="g3918">
        <path
   d="m 10.28125,-7.53125 c 0,-1.265625 -0.25,-3.328125 -3.171875,-3.328125 -2.03125,0 -3.015625,1.640625 -3.3125,2.453125 h -0.03125 v -8.796875 l -2.953125,0.28125 v 0.640625 c 1.46875,0 1.6875,0.15625 1.6875,1.34375 v 13.234375 c 0,0.9375 -0.09375,1.0625 -1.6875,1.0625 V 0 C 1.40625,-0.046875 2.5,-0.046875 3.140625,-0.046875 c 0.65625,0 1.765625,0 2.359375,0.046875 v -0.640625 c -1.578125,0 -1.6875,-0.109375 -1.6875,-1.0625 V -6.46875 c 0,-2.28125 1.390625,-3.984375 3.125,-3.984375 1.828125,0 2.03125,1.625 2.03125,2.828125 v 5.921875 c 0,0.9375 -0.09375,1.0625 -1.6875,1.0625 V 0 c 0.59375,-0.046875 1.6875,-0.046875 2.328125,-0.046875 0.65625,0 1.765625,0 2.359375,0.046875 v -0.640625 c -1.578125,0 -1.6875,-0.109375 -1.6875,-1.0625 z m 0,0"
   id="path4318" />
      </g>
    </g>
  </defs><g
     inkscape:label="Layer 1"
     inkscape:groupmode="layer"
     id="layer1"><g
       id="g209"
       transform="translate(-5.0899411)"><path
         style="fill:#ffffff;fill-opacity:1;stroke:#0077bb;stroke-width:1;stroke-linecap:square;stroke-linejoin:round;stroke-dasharray:none;stroke-opacity:1"
         d="M 19.952817,188.52825 8.86292,71.420738 107.7802,108.95726 106.84992,245.91229 Z"
         id="path1" /><path
         style="fill:#e8e8e8;fill-opacity:1;stroke:#0077bb;stroke-width:1;stroke-linecap:square;stroke-linejoin:round;stroke-dasharray:none;stroke-opacity:1"
         d="M 191.47199,188.78275 203.898,71.866111 107.7802,108.95726 106.84992,245.91229 Z"
         id="path1-4"
         sodipodi:nodetypes="ccccc" /><path
         style="fill:none;fill-opacity:0.74902;stroke:#0077bb;stroke-width:1;stroke-linecap:square;stroke-linejoin:round;stroke-dasharray:none;stroke-opacity:1"
         d="M 107.7802,108.95726 203.898,71.866111 106.18959,46.891387 8.8629198,71.420738 Z"
         id="path2" /><path
         style="fill:#ffffff;fill-opacity:1;stroke:#0077bb;stroke-width:1;stroke-linecap:square;stroke-linejoin:round;stroke-dasharray:none;stroke-opacity:1"
         d="m 8.8629198,71.420738 10.0137152,3.799943 1.3242,16.716978 -9.785444,-4.123074 z"
         id="path3" /><path
         style="fill:#ffffff;fill-opacity:1;stroke:#0077bb;stroke-width:1;stroke-linecap:square;stroke-linejoin:round;stroke-dasharray:none;stroke-opacity:1"
         d="M 20.200835,91.937659 30.635284,96.359574 29.391001,79.210608 18.876635,75.220681 Z"
         id="path4" /><path
         style="fill:#f29966;fill-opacity:1;stroke:#0077bb;stroke-width:1;stroke-linecap:square;stroke-linejoin:round;stroke-dasharray:none;stroke-opacity:1"
         d="M 30.635284,96.359574 41.769601,100.97236 40.757424,83.523869 29.391001,79.210608 Z"
         id="path5" /><path
         style="fill:#f29966;fill-opacity:1;stroke:#0077bb;stroke-width:1;stroke-linecap:square;stroke-linejoin:round;stroke-dasharray:none;stroke-opacity:1"
         d="M 41.769601,100.97236 53.492444,105.95013 52.873626,88.12165 40.757424,83.523867 Z"
         id="path6" /><path
         style="fill:#ffffff;fill-opacity:1;stroke:#0077bb;stroke-width:1;stroke-linecap:square;stroke-linejoin:round;stroke-dasharray:none;stroke-opacity:1"
         d="M 53.492444,105.95013 65.99951,111.2139 65.20513,92.801135 52.873626,88.121648 Z"
         id="path7" /><path
         style="fill:#ffffff;fill-opacity:1;stroke:#0077bb;stroke-width:1;stroke-linecap:square;stroke-linejoin:round;stroke-dasharray:none;stroke-opacity:1"
         d="m 65.99951,111.2139 13.024442,5.42123 -0.47966,-18.772135 -13.339162,-5.06186 z"
         id="path8" /><path
         style="fill:#ffffff;fill-opacity:1;stroke:#0077bb;stroke-width:1;stroke-linecap:square;stroke-linejoin:round;stroke-dasharray:none;stroke-opacity:1"
         d="m 79.02395,116.63513 13.820362,5.74694 -0.137321,-19.1447 -14.162699,-5.374375 z"
         id="path9" /><path
         style="fill:#f29966;fill-opacity:1;stroke:#0077bb;stroke-width:1;stroke-linecap:square;stroke-linejoin:round;stroke-dasharray:none;stroke-opacity:1"
         d="m 92.844312,122.38207 14.801908,6.29901 0.13398,-19.72382 -15.073209,-5.71989 z"
         id="path10" /><path
         style="fill:#ffffff;fill-opacity:1;stroke:#0077bb;stroke-width:1;stroke-linecap:square;stroke-linejoin:round;stroke-dasharray:none;stroke-opacity:1"
         d="m 11.935787,103.86972 9.632979,4.32404 -1.367931,-16.256101 -9.785444,-4.123076 z"
         id="path11" /><path
         style="fill:#f29966;fill-opacity:1;stroke:#0077bb;stroke-width:1;stroke-linecap:square;stroke-linejoin:round;stroke-dasharray:none;stroke-opacity:1"
         d="M 21.568766,108.19376 32.066838,112.90199 30.635284,96.359574 20.200835,91.937659 Z"
         id="path12" /><path
         style="fill:#ffffff;fill-opacity:1;stroke:#0077bb;stroke-width:1;stroke-linecap:square;stroke-linejoin:round;stroke-dasharray:none;stroke-opacity:1"
         d="m 32.066838,112.90199 10.911631,5.08998 -1.208868,-17.01961 -11.134317,-4.612786 z"
         id="path13" /><path
         style="fill:#ffffff;fill-opacity:1;stroke:#0077bb;stroke-width:1;stroke-linecap:square;stroke-linejoin:round;stroke-dasharray:none;stroke-opacity:1"
         d="m 42.978469,117.99197 11.516069,5.28084 -1.002094,-17.32268 -11.722843,-4.97777 z"
         id="path14" /><path
         style="fill:#ffffff;fill-opacity:1;stroke:#0077bb;stroke-width:1;stroke-linecap:square;stroke-linejoin:round;stroke-dasharray:none;stroke-opacity:1"
         d="M 54.494538,123.27281 66.573127,128.72604 65.99951,111.2139 53.492444,105.95013 Z"
         id="path15" /><path
         style="fill:#ffffff;fill-opacity:1;stroke:#0077bb;stroke-width:1;stroke-linecap:square;stroke-linejoin:round;stroke-dasharray:none;stroke-opacity:1"
         d="m 66.573127,128.72604 12.95772,5.9674 -0.506897,-18.05831 -13.02444,-5.42123 z"
         id="path16" /><path
         style="fill:#f29966;fill-opacity:1;stroke:#0077bb;stroke-width:1;stroke-linecap:square;stroke-linejoin:round;stroke-dasharray:none;stroke-opacity:1"
         d="m 79.530847,134.69344 13.583869,6.26703 -0.270404,-18.5784 -13.820362,-5.74694 z"
         id="path17" /><path
         style="fill:#ffffff;fill-opacity:1;stroke:#0077bb;stroke-width:1;stroke-linecap:square;stroke-linejoin:round;stroke-dasharray:none;stroke-opacity:1"
         d="m 93.114716,140.96047 14.403584,6.5533 0.12792,-18.83269 -14.801908,-6.29901 z"
         id="path18" /><path
         style="fill:#ffffff;fill-opacity:1;stroke:#0077bb;stroke-width:1;stroke-linecap:square;stroke-linejoin:round;stroke-dasharray:none;stroke-opacity:1"
         d="m 13.368666,119.00069 9.53096,4.85524 -1.33086,-15.66217 -9.632979,-4.32404 z"
         id="path19" /><path
         style="fill:#ffffff;fill-opacity:1;stroke:#0077bb;stroke-width:1;stroke-linecap:square;stroke-linejoin:round;stroke-dasharray:none;stroke-opacity:1"
         d="m 22.899626,123.85593 10.392561,5.1288 -1.225349,-16.08274 -10.498072,-4.70823 z"
         id="path20" /><path
         style="fill:#ffffff;fill-opacity:1;stroke:#0077bb;stroke-width:1;stroke-linecap:square;stroke-linejoin:round;stroke-dasharray:none;stroke-opacity:1"
         d="m 33.292187,128.98473 10.842456,5.35374 -1.156174,-16.3465 -10.911631,-5.08998 z"
         id="path21" /><path
         style="fill:#ffffff;fill-opacity:1;stroke:#0077bb;stroke-width:1;stroke-linecap:square;stroke-linejoin:round;stroke-dasharray:none;stroke-opacity:1"
         d="m 44.134643,134.33847 11.292347,5.44372 -0.932452,-16.50938 -11.516069,-5.28084 z"
         id="path22" /><path
         style="fill:#ffffff;fill-opacity:1;stroke:#0077bb;stroke-width:1;stroke-linecap:square;stroke-linejoin:round;stroke-dasharray:none;stroke-opacity:1"
         d="m 55.42699,139.78219 11.877215,5.89362 -0.731078,-16.94977 -12.078589,-5.45323 z"
         id="path23" /><path
         style="fill:#f29966;fill-opacity:1;stroke:#0077bb;stroke-width:1;stroke-linecap:square;stroke-linejoin:round;stroke-dasharray:none;stroke-opacity:1"
         d="m 67.304205,145.67581 12.687022,6.34351 -0.46038,-17.32588 -12.95772,-5.9674 z"
         id="path24" /><path
         style="fill:#ffffff;fill-opacity:1;stroke:#0077bb;stroke-width:1;stroke-linecap:square;stroke-linejoin:round;stroke-dasharray:none;stroke-opacity:1"
         d="M 79.991227,152.01932 93.3081,158.67776 93.114716,140.96047 79.530847,134.69344 Z"
         id="path25" /><path
         style="fill:#ffffff;fill-opacity:1;stroke:#0077bb;stroke-width:1;stroke-linecap:square;stroke-linejoin:round;stroke-dasharray:none;stroke-opacity:1"
         d="m 93.3081,158.67776 14.08669,7.019 0.12351,-18.18299 -14.403584,-6.5533 z"
         id="path26" /><path
         style="fill:#ffffff;fill-opacity:1;stroke:#0077bb;stroke-width:1;stroke-linecap:square;stroke-linejoin:round;stroke-dasharray:none;stroke-opacity:1"
         d="m 14.787575,133.98414 9.596702,4.89826 -1.484651,-15.02647 -9.53096,-4.85524 z"
         id="path27" /><path
         style="fill:#ffffff;fill-opacity:1;stroke:#0077bb;stroke-width:1;stroke-linecap:square;stroke-linejoin:round;stroke-dasharray:none;stroke-opacity:1"
         d="m 16.158437,148.46021 9.350575,5.08874 -1.124735,-14.66655 -9.53096,-4.85524 z"
         id="path27-8"
         sodipodi:nodetypes="ccccc" /><path
         style="fill:#ffffff;fill-opacity:1;stroke:#0077bb;stroke-width:1;stroke-linecap:square;stroke-linejoin:round;stroke-dasharray:none;stroke-opacity:1"
         d="m 25.509012,153.54895 10.048552,5.59733 -1.140641,-14.73017 -10.032646,-5.53371 z"
         id="path27-8-1"
         sodipodi:nodetypes="ccccc" /><path
         style="fill:#ffffff;fill-opacity:1;stroke:#0077bb;stroke-width:1;stroke-linecap:square;stroke-linejoin:round;stroke-dasharray:none;stroke-opacity:1"
         d="m 35.557564,159.14628 10.430962,5.7323 -0.954096,-14.97376 -10.601601,-5.42509 z"
         id="path27-8-1-7"
         sodipodi:nodetypes="ccccc" /><path
         style="fill:#ffffff;fill-opacity:1;stroke:#0077bb;stroke-width:1;stroke-linecap:square;stroke-linejoin:round;stroke-dasharray:none;stroke-opacity:1"
         d="m 24.384277,138.8824 10.032646,5.53371 -1.124736,-15.43138 -10.392561,-5.1288 z"
         id="path28" /><path
         style="fill:#ffffff;fill-opacity:1;stroke:#0077bb;stroke-width:1;stroke-linecap:square;stroke-linejoin:round;stroke-dasharray:none;stroke-opacity:1"
         d="m 34.416923,144.41611 10.617507,5.48871 -0.899787,-15.56635 -10.842456,-5.35374 z"
         id="path29" /><path
         style="fill:#ffffff;fill-opacity:1;stroke:#0077bb;stroke-width:1;stroke-linecap:square;stroke-linejoin:round;stroke-dasharray:none;stroke-opacity:1"
         d="m 45.03443,149.90482 11.157383,6.07357 -0.764823,-16.1962 -11.292347,-5.44372 z"
         id="path30" /><path
         style="fill:#f29966;fill-opacity:1;stroke:#0077bb;stroke-width:1;stroke-linecap:square;stroke-linejoin:round;stroke-dasharray:none;stroke-opacity:1"
         d="m 56.191813,155.97839 11.877212,6.20855 -0.76482,-16.51113 -11.877215,-5.89362 z"
         id="path31" /><path
         style="fill:#ffffff;fill-opacity:1;stroke:#0077bb;stroke-width:1;stroke-linecap:square;stroke-linejoin:round;stroke-dasharray:none;stroke-opacity:1"
         d="m 68.069025,162.18694 12.417086,6.65843 -0.494884,-16.82605 -12.687022,-6.34351 z"
         id="path32" /><path
         style="fill:#ffffff;fill-opacity:1;stroke:#0077bb;stroke-width:1;stroke-linecap:square;stroke-linejoin:round;stroke-dasharray:none;stroke-opacity:1"
         d="M 80.486109,168.84537 93.39808,175.5488 93.3081,158.67776 79.991227,152.01932 Z"
         id="path33" /><path
         style="fill:#f29966;fill-opacity:1;stroke:#0077bb;stroke-width:1;stroke-linecap:square;stroke-linejoin:round;stroke-dasharray:none;stroke-opacity:1"
         d="m 93.39808,175.5488 13.87967,7.37873 0.11704,-17.23077 -14.08669,-7.019 z"
         id="path34" /><path
         style="fill:#f29966;fill-opacity:1;stroke:#0077bb;stroke-width:1;stroke-linecap:square;stroke-linejoin:round;stroke-dasharray:none;stroke-opacity:1"
         d="m 45.03443,149.90482 11.157383,6.07357 0.674841,15.29641 -10.878129,-6.39622 z"
         id="path35" /><path
         style="fill:#ffffff;fill-opacity:1;stroke:#0077bb;stroke-width:1;stroke-linecap:square;stroke-linejoin:round;stroke-dasharray:none;stroke-opacity:1"
         d="m 56.191813,155.97839 11.877212,6.20855 0.359916,15.7463 -11.562287,-6.65844 z"
         id="path36" /><path
         style="fill:#ffffff;fill-opacity:1;stroke:#0077bb;stroke-width:1;stroke-linecap:square;stroke-linejoin:round;stroke-dasharray:none;stroke-opacity:1"
         d="m 68.069025,162.18694 12.417084,6.65843 0.134969,15.72381 -12.192137,-6.63594 z"
         id="path37" /><path
         style="fill:#ffffff;fill-opacity:1;stroke:#0077bb;stroke-width:1;stroke-linecap:square;stroke-linejoin:round;stroke-dasharray:none;stroke-opacity:1"
         d="m 80.486109,168.84537 12.911971,6.70343 0.08998,16.35366 -12.866981,-7.33328 z"
         id="path38" /><path
         style="fill:#f29966;fill-opacity:1;stroke:#0077bb;stroke-width:1;stroke-linecap:square;stroke-linejoin:round;stroke-dasharray:none;stroke-opacity:1"
         d="m 93.39808,175.5488 13.87967,7.37873 -0.11361,16.72598 -13.676081,-7.75105 z"
         id="path39" /><path
         style="fill:#ffffff;fill-opacity:1;stroke:#0077bb;stroke-width:1;stroke-linecap:square;stroke-linejoin:round;stroke-dasharray:none;stroke-opacity:1"
         d="m 16.158437,148.46021 9.350575,5.08874 1.18154,14.13389 -9.236142,-5.53736 z"
         id="path40" /><path
         style="fill:#f29966;fill-opacity:1;stroke:#0077bb;stroke-width:1;stroke-linecap:square;stroke-linejoin:round;stroke-dasharray:none;stroke-opacity:1"
         d="m 25.509012,153.54895 10.048551,5.59733 1.026628,14.5809 -9.893639,-6.04434 z"
         id="path41" /><path
         style="fill:#f29966;fill-opacity:1;stroke:#0077bb;stroke-width:1;stroke-linecap:square;stroke-linejoin:round;stroke-dasharray:none;stroke-opacity:1"
         d="m 35.557563,159.14628 10.430962,5.7323 0.980451,14.80925 -10.384785,-5.96065 z"
         id="path42" /><path
         style="fill:#ffffff;fill-opacity:1;stroke:#0077bb;stroke-width:1;stroke-linecap:square;stroke-linejoin:round;stroke-dasharray:none;stroke-opacity:1"
         d="m 45.988525,164.87858 10.878129,6.39622 0.809811,14.89151 -10.707489,-6.47848 z"
         id="path43" /><path
         style="fill:#ffffff;fill-opacity:1;stroke:#0077bb;stroke-width:1;stroke-linecap:square;stroke-linejoin:round;stroke-dasharray:none;stroke-opacity:1"
         d="m 56.866654,171.2748 11.562287,6.65844 0.629851,15.16144 -11.382327,-6.92837 z"
         id="path44" /><path
         style="fill:#ffffff;fill-opacity:1;stroke:#0077bb;stroke-width:1;stroke-linecap:square;stroke-linejoin:round;stroke-dasharray:none;stroke-opacity:1"
         d="m 68.428941,177.93324 12.192137,6.63594 0.494885,15.63383 -12.057171,-7.10833 z"
         id="path45" /><path
         style="fill:#f29966;fill-opacity:1;stroke:#0077bb;stroke-width:1;stroke-linecap:square;stroke-linejoin:round;stroke-dasharray:none;stroke-opacity:1"
         d="m 80.621078,184.56918 12.866981,7.33328 0.179956,15.72381 -12.552052,-7.42326 z"
         id="path46" /><path
         style="fill:#ffffff;fill-opacity:1;stroke:#0077bb;stroke-width:1;stroke-linecap:square;stroke-linejoin:round;stroke-dasharray:none;stroke-opacity:1"
         d="m 93.488059,191.90246 13.676081,7.75105 -0.10856,15.98136 -13.387567,-8.0086 z"
         id="path47" /><path
         style="fill:#ffffff;fill-opacity:1;stroke:#0077bb;stroke-width:1;stroke-linecap:square;stroke-linejoin:round;stroke-dasharray:none;stroke-opacity:1"
         d="m 17.45441,162.14548 9.236142,5.53736 1.337869,13.84956 -9.287519,-5.80178 z"
         id="path48" /><path
         style="fill:#f29966;fill-opacity:1;stroke:#0077bb;stroke-width:1;stroke-linecap:square;stroke-linejoin:round;stroke-dasharray:none;stroke-opacity:1"
         d="m 26.690552,167.68284 9.893639,6.04434 1.026983,13.8338 -9.582753,-6.02858 z"
         id="path49" /><path
         style="fill:#f29966;fill-opacity:1;stroke:#0077bb;stroke-width:1;stroke-linecap:square;stroke-linejoin:round;stroke-dasharray:none;stroke-opacity:1"
         d="m 36.584191,173.72718 10.384785,5.96065 0.76482,14.21666 -10.122622,-6.34351 z"
         id="path50" /><path
         style="fill:#ffffff;fill-opacity:1;stroke:#0077bb;stroke-width:1;stroke-linecap:square;stroke-linejoin:round;stroke-dasharray:none;stroke-opacity:1"
         d="m 46.968976,179.68783 10.707489,6.47848 0.76482,14.44161 -10.707489,-6.70343 z"
         id="path51" /><path
         style="fill:#ffffff;fill-opacity:1;stroke:#0077bb;stroke-width:1;stroke-linecap:square;stroke-linejoin:round;stroke-dasharray:none;stroke-opacity:1"
         d="m 57.676465,186.16631 11.382327,6.92837 0.629854,14.80153 -11.247361,-7.28829 z"
         id="path52" /><path
         style="fill:#ffffff;fill-opacity:1;stroke:#0077bb;stroke-width:1;stroke-linecap:square;stroke-linejoin:round;stroke-dasharray:none;stroke-opacity:1"
         d="m 69.058792,193.09468 12.057171,7.10833 0.179959,14.89151 -11.607276,-7.19831 z"
         id="path53" /><path
         style="fill:#ffffff;fill-opacity:1;stroke:#0077bb;stroke-width:1;stroke-linecap:square;stroke-linejoin:round;stroke-dasharray:none;stroke-opacity:1"
         d="m 81.115963,200.20301 12.55205,7.42326 0.179961,15.3414 -12.552052,-7.87315 z"
         id="path54" /><path
         style="fill:#ffffff;fill-opacity:1;stroke:#0077bb;stroke-width:1;stroke-linecap:square;stroke-linejoin:round;stroke-dasharray:none;stroke-opacity:1"
         d="m 93.668013,207.62627 13.387567,8.0086 -0.10573,15.56533 -13.101878,-8.23253 z"
         id="path55" /><path
         style="fill:#f29966;fill-opacity:1;stroke:#0077bb;stroke-width:1;stroke-linecap:square;stroke-linejoin:round;stroke-dasharray:none;stroke-opacity:1"
         d="m 18.740902,175.73062 9.287519,5.80178 0.997606,12.9875 -9.07321,-5.99165 z"
         id="path56" /><path
         style="fill:#ffffff;fill-opacity:1;stroke:#0077bb;stroke-width:1;stroke-linecap:square;stroke-linejoin:round;stroke-dasharray:none;stroke-opacity:1"
         d="m 28.028421,181.5324 9.582753,6.02858 0.942017,13.25035 -9.527164,-6.29143 z"
         id="path57" /><path
         style="fill:#ffffff;fill-opacity:1;stroke:#0077bb;stroke-width:1;stroke-linecap:square;stroke-linejoin:round;stroke-dasharray:none;stroke-opacity:1"
         d="m 37.611174,187.56098 10.122622,6.34351 0.900412,13.56402 -10.081017,-6.65718 z"
         id="path58" /><path
         style="fill:#ffffff;fill-opacity:1;stroke:#0077bb;stroke-width:1;stroke-linecap:square;stroke-linejoin:round;stroke-dasharray:none;stroke-opacity:1"
         d="m 47.733796,193.90449 10.707489,6.70343 0.718434,13.8113 -10.525511,-6.95071 z"
         id="path59" /><path
         style="fill:#ffffff;fill-opacity:1;stroke:#0077bb;stroke-width:1;stroke-linecap:square;stroke-linejoin:round;stroke-dasharray:none;stroke-opacity:1"
         d="m 58.441285,200.60792 11.247361,7.28829 0.467092,13.78443 -10.996019,-7.26142 z"
         id="path60" /><path
         style="fill:#ffffff;fill-opacity:1;stroke:#0077bb;stroke-width:1;stroke-linecap:square;stroke-linejoin:round;stroke-dasharray:none;stroke-opacity:1"
         d="m 69.688646,207.89621 11.607276,7.19831 0.355306,14.17737 -11.49549,-7.59125 z"
         id="path61" /><path
         style="fill:#ffffff;fill-opacity:1;stroke:#0077bb;stroke-width:1;stroke-linecap:square;stroke-linejoin:round;stroke-dasharray:none;stroke-opacity:1"
         d="m 81.295922,215.09452 12.55205,7.87315 0.100851,14.42515 -12.297595,-8.12093 z"
         id="path62" /><path
         style="fill:#ed8c54;fill-opacity:1;stroke:#0077bb;stroke-width:1;stroke-linecap:square;stroke-linejoin:round;stroke-dasharray:none;stroke-opacity:1"
         d="m 107.7802,108.95726 14.66223,-5.65805 -0.47392,19.24192 -14.32229,6.13995 z"
         id="path63" /><path
         style="fill:#ed8c54;fill-opacity:1;stroke:#0077bb;stroke-width:1;stroke-linecap:square;stroke-linejoin:round;stroke-dasharray:none;stroke-opacity:1"
         d="m 122.44243,103.29921 13.99965,-5.402357 -0.73064,19.045307 -13.74293,5.59897 z"
         id="path64" /><path
         style="fill:#ed8c54;fill-opacity:1;stroke:#0077bb;stroke-width:1;stroke-linecap:square;stroke-linejoin:round;stroke-dasharray:none;stroke-opacity:1"
         d="m 136.44208,97.896851 12.67838,-4.892493 -0.81134,18.466082 -12.59768,5.47172 z"
         id="path65" /><path
         style="fill:#ed8c54;fill-opacity:1;stroke:#0077bb;stroke-width:1;stroke-linecap:square;stroke-linejoin:round;stroke-dasharray:none;stroke-opacity:1"
         d="m 149.12046,93.004356 12.44423,-4.802132 -1.16688,18.050986 -12.08869,5.21723 z"
         id="path66" /><path
         style="fill:#ed8c54;fill-opacity:1;stroke:#0077bb;stroke-width:1;stroke-linecap:square;stroke-linejoin:round;stroke-dasharray:none;stroke-opacity:1"
         d="m 161.56469,88.202224 11.74085,-4.530712 -1.32803,17.682598 -11.5797,4.8991 z"
         id="path67" /><path
         style="fill:#ed8c54;fill-opacity:1;stroke:#0077bb;stroke-width:1;stroke-linecap:square;stroke-linejoin:round;stroke-dasharray:none;stroke-opacity:1"
         d="m 173.30554,83.671512 10.85872,-4.190296 -1.56143,17.164669 -10.62532,4.708225 z"
         id="path68" /><path
         style="fill:#e8e8e8;fill-opacity:1;stroke:#0077bb;stroke-width:1;stroke-linecap:square;stroke-linejoin:round;stroke-dasharray:none;stroke-opacity:1"
         d="m 184.16426,79.481216 10.50507,-4.053832 -1.82293,16.892024 -10.24357,4.326477 z"
         id="path69" /><path
         style="fill:#e8e8e8;fill-opacity:1;stroke:#0077bb;stroke-width:1;stroke-linecap:square;stroke-linejoin:round;stroke-dasharray:none;stroke-opacity:1"
         d="m 194.66933,75.427384 9.22867,-3.561273 -1.76587,16.615161 -9.28573,3.838136 z"
         id="path70" /><path
         style="fill:#e8e8e8;fill-opacity:1;stroke:#0077bb;stroke-width:1;stroke-linecap:square;stroke-linejoin:round;stroke-dasharray:none;stroke-opacity:1"
         d="m 107.64622,128.68108 14.32229,-6.13995 -0.38175,18.26028 -14.06846,6.71236 z"
         id="path71" /><path
         style="fill:#ed8c54;fill-opacity:1;stroke:#0077bb;stroke-width:1;stroke-linecap:square;stroke-linejoin:round;stroke-dasharray:none;stroke-opacity:1"
         d="m 121.96851,122.54113 13.74293,-5.59897 -0.82712,17.94216 -13.29756,5.91709 z"
         id="path72" /><path
         style="fill:#ed8c54;fill-opacity:1;stroke:#0077bb;stroke-width:1;stroke-linecap:square;stroke-linejoin:round;stroke-dasharray:none;stroke-opacity:1"
         d="m 135.71144,116.94216 12.59768,-5.47172 -0.89074,17.36953 -12.53406,6.04435 z"
         id="path73" /><path
         style="fill:#ed8c54;fill-opacity:1;stroke:#0077bb;stroke-width:1;stroke-linecap:square;stroke-linejoin:round;stroke-dasharray:none;stroke-opacity:1"
         d="m 148.30912,111.47044 12.08869,-5.21723 -1.14524,17.05142 -11.83419,5.53534 z"
         id="path74" /><path
         style="fill:#ed8c54;fill-opacity:1;stroke:#0077bb;stroke-width:1;stroke-linecap:square;stroke-linejoin:round;stroke-dasharray:none;stroke-opacity:1"
         d="m 160.39781,106.25321 11.5797,-4.8991 -1.33612,16.79692 -11.38882,5.1536 z"
         id="path75" /><path
         style="fill:#e8e8e8;fill-opacity:1;stroke:#0077bb;stroke-width:1;stroke-linecap:square;stroke-linejoin:round;stroke-dasharray:none;stroke-opacity:1"
         d="m 171.97751,101.35411 10.62532,-4.708225 -1.33612,16.542415 -10.62532,4.96273 z"
         id="path76" /><path
         style="fill:#e8e8e8;fill-opacity:1;stroke:#0077bb;stroke-width:1;stroke-linecap:square;stroke-linejoin:round;stroke-dasharray:none;stroke-opacity:1"
         d="m 182.60283,96.645885 10.24357,-4.326477 -1.52699,16.160672 -10.0527,4.70822 z"
         id="path77" /><path
         style="fill:#e8e8e8;fill-opacity:1;stroke:#0077bb;stroke-width:1;stroke-linecap:square;stroke-linejoin:round;stroke-dasharray:none;stroke-opacity:1"
         d="m 192.8464,92.319408 9.28573,-3.838136 -1.65142,15.538248 -9.1613,4.46056 z"
         id="path78" /><path
         style="fill:#ed8c54;fill-opacity:1;stroke:#0077bb;stroke-width:1;stroke-linecap:square;stroke-linejoin:round;stroke-dasharray:none;stroke-opacity:1"
         d="m 107.5183,147.51377 14.06846,-6.71236 -0.29523,17.92134 -13.89674,6.97401 z"
         id="path79" /><path
         style="fill:#ed8c54;fill-opacity:1;stroke:#0077bb;stroke-width:1;stroke-linecap:square;stroke-linejoin:round;stroke-dasharray:none;stroke-opacity:1"
         d="m 121.58676,140.80141 13.29756,-5.91709 -0.59084,17.00003 -13.00195,6.8384 z"
         id="path80" /><path
         style="fill:#ed8c54;fill-opacity:1;stroke:#0077bb;stroke-width:1;stroke-linecap:square;stroke-linejoin:round;stroke-dasharray:none;stroke-opacity:1"
         d="m 134.88432,134.88432 12.53406,-6.04435 -0.84278,17.10578 -12.28212,5.9386 z"
         id="path81" /><path
         style="fill:#ed8c54;fill-opacity:1;stroke:#0077bb;stroke-width:1;stroke-linecap:square;stroke-linejoin:round;stroke-dasharray:none;stroke-opacity:1"
         d="m 147.41838,128.83997 11.83419,-5.53534 -1.14524,16.73329 -11.53173,5.90783 z"
         id="path82" /><path
         style="fill:#e8e8e8;fill-opacity:1;stroke:#0077bb;stroke-width:1;stroke-linecap:square;stroke-linejoin:round;stroke-dasharray:none;stroke-opacity:1"
         d="m 159.25257,123.30463 11.38882,-5.1536 -1.39975,16.22429 -11.13431,5.6626 z"
         id="path83" /><path
         style="fill:#e8e8e8;fill-opacity:1;stroke:#0077bb;stroke-width:1;stroke-linecap:square;stroke-linejoin:round;stroke-dasharray:none;stroke-opacity:1"
         d="m 170.64139,118.15103 10.62532,-4.96273 -1.59062,15.90617 -10.43445,5.28085 z"
         id="path84" /><path
         style="fill:#e8e8e8;fill-opacity:1;stroke:#0077bb;stroke-width:1;stroke-linecap:square;stroke-linejoin:round;stroke-dasharray:none;stroke-opacity:1"
         d="m 181.26671,113.1883 10.0527,-4.70822 -1.65424,15.65167 -9.98908,4.96272 z"
         id="path85" /><path
         style="fill:#e8e8e8;fill-opacity:1;stroke:#0077bb;stroke-width:1;stroke-linecap:square;stroke-linejoin:round;stroke-dasharray:none;stroke-opacity:1"
         d="m 191.31941,108.48008 9.1613,-4.46056 -1.6345,15.37898 -9.18104,4.73325 z"
         id="path86" /><path
         style="fill:#ed8c54;fill-opacity:1;stroke:#0077bb;stroke-width:1;stroke-linecap:square;stroke-linejoin:round;stroke-dasharray:none;stroke-opacity:1"
         d="m 107.39479,165.69676 13.89674,-6.97401 -0.46827,16.94499 -13.54551,7.25979 z"
         id="path87" /><path
         style="fill:#ed8c54;fill-opacity:1;stroke:#0077bb;stroke-width:1;stroke-linecap:square;stroke-linejoin:round;stroke-dasharray:none;stroke-opacity:1"
         d="m 121.29153,158.72275 13.00195,-6.8384 -0.49078,16.72105 -12.97944,7.06234 z"
         id="path88" /><path
         style="fill:#e8e8e8;fill-opacity:1;stroke:#0077bb;stroke-width:1;stroke-linecap:square;stroke-linejoin:round;stroke-dasharray:none;stroke-opacity:1"
         d="m 134.29348,151.88435 12.28212,-5.9386 -0.81146,16.1063 -11.96144,6.55335 z"
         id="path89" /><path
         style="fill:#e8e8e8;fill-opacity:1;stroke:#0077bb;stroke-width:1;stroke-linecap:square;stroke-linejoin:round;stroke-dasharray:none;stroke-opacity:1"
         d="m 146.5756,145.94575 11.53173,-5.90783 -0.89075,15.90617 -11.45244,6.10796 z"
         id="path90" /><path
         style="fill:#e8e8e8;fill-opacity:1;stroke:#0077bb;stroke-width:1;stroke-linecap:square;stroke-linejoin:round;stroke-dasharray:none;stroke-opacity:1"
         d="m 158.10733,140.03792 11.13431,-5.6626 -1.08162,15.65167 -10.94344,5.9171 z"
         id="path91" /><path
         style="fill:#e8e8e8;fill-opacity:1;stroke:#0077bb;stroke-width:1;stroke-linecap:square;stroke-linejoin:round;stroke-dasharray:none;stroke-opacity:1"
         d="m 169.24164,134.37532 10.43445,-5.28085 -1.27249,15.33355 -10.24358,5.59897 z"
         id="path92" /><path
         style="fill:#e8e8e8;fill-opacity:1;stroke:#0077bb;stroke-width:1;stroke-linecap:square;stroke-linejoin:round;stroke-dasharray:none;stroke-opacity:1"
         d="m 179.67609,129.09447 9.98908,-4.96272 -1.2725,14.82455 -9.98907,5.47172 z"
         id="path93" /><path
         style="fill:#e8e8e8;fill-opacity:1;stroke:#0077bb;stroke-width:1;stroke-linecap:square;stroke-linejoin:round;stroke-dasharray:none;stroke-opacity:1"
         d="m 189.66517,124.13175 9.18104,-4.73325 -1.58384,14.90242 -8.8697,4.65538 z"
         id="path94" /><path
         style="fill:#e8e8e8;fill-opacity:1;stroke:#0077bb;stroke-width:1;stroke-linecap:square;stroke-linejoin:round;stroke-dasharray:none;stroke-opacity:1"
         d="m 107.27775,182.92753 13.54551,-7.25979 -0.31812,16.35154 -13.341,7.63423 z"
         id="path95" /><path
         style="fill:#e8e8e8;fill-opacity:1;stroke:#0077bb;stroke-width:1;stroke-linecap:square;stroke-linejoin:round;stroke-dasharray:none;stroke-opacity:1"
         d="m 120.82326,175.66774 12.97944,-7.06234 -0.63625,16.16066 -12.66131,7.25322 z"
         id="path96" /><path
         style="fill:#e8e8e8;fill-opacity:1;stroke:#0077bb;stroke-width:1;stroke-linecap:square;stroke-linejoin:round;stroke-dasharray:none;stroke-opacity:1"
         d="m 133.8027,168.6054 11.96144,-6.55335 -0.89075,15.84255 -11.70694,6.87146 z"
         id="path97" /><path
         style="fill:#e8e8e8;fill-opacity:1;stroke:#0077bb;stroke-width:1;stroke-linecap:square;stroke-linejoin:round;stroke-dasharray:none;stroke-opacity:1"
         d="m 145.76414,162.05205 11.45244,-6.10796 -0.95437,15.39717 -11.38882,6.55334 z"
         id="path98" /><path
         style="fill:#e8e8e8;fill-opacity:1;stroke:#0077bb;stroke-width:1;stroke-linecap:square;stroke-linejoin:round;stroke-dasharray:none;stroke-opacity:1"
         d="m 157.21658,155.94409 10.94344,-5.9171 -1.20886,15.01542 -10.68895,6.29885 z"
         id="path99" /><path
         style="fill:#e8e8e8;fill-opacity:1;stroke:#0077bb;stroke-width:1;stroke-linecap:square;stroke-linejoin:round;stroke-dasharray:none;stroke-opacity:1"
         d="m 168.16002,150.02699 10.24358,-5.59897 -1.14525,14.76092 -10.30719,5.85347 z"
         id="path100" /><path
         style="fill:#e8e8e8;fill-opacity:1;stroke:#0077bb;stroke-width:1;stroke-linecap:square;stroke-linejoin:round;stroke-dasharray:none;stroke-opacity:1"
         d="m 178.4036,144.42802 9.98907,-5.47172 -1.65424,14.6973 -9.48008,5.53534 z"
         id="path101" /><path
         style="fill:#e8e8e8;fill-opacity:1;stroke:#0077bb;stroke-width:1;stroke-linecap:square;stroke-linejoin:round;stroke-dasharray:none;stroke-opacity:1"
         d="m 188.39267,138.9563 8.8697,-4.65538 -1.5497,14.58116 -8.97424,4.77152 z"
         id="path102" /><path
         style="fill:#e8e8e8;fill-opacity:1;stroke:#0077bb;stroke-width:1;stroke-linecap:square;stroke-linejoin:round;stroke-dasharray:none;stroke-opacity:1"
         d="m 107.16414,199.65351 13.341,-7.63423 -0.38333,15.562 -13.06623,8.05359 z"
         id="path103" /><path
         style="fill:#e8e8e8;fill-opacity:1;stroke:#0077bb;stroke-width:1;stroke-linecap:square;stroke-linejoin:round;stroke-dasharray:none;stroke-opacity:1"
         d="m 120.50514,192.01928 12.66131,-7.25322 -0.71754,15.61691 -12.3271,7.19831 z"
         id="path104" /><path
         style="fill:#e8e8e8;fill-opacity:1;stroke:#0077bb;stroke-width:1;stroke-linecap:square;stroke-linejoin:round;stroke-dasharray:none;stroke-opacity:1"
         d="m 133.16645,184.76606 11.70694,-6.87146 -0.63724,14.93015 -11.78724,7.55822 z"
         id="path105" /><path
         style="fill:#e8e8e8;fill-opacity:1;stroke:#0077bb;stroke-width:1;stroke-linecap:square;stroke-linejoin:round;stroke-dasharray:none;stroke-opacity:1"
         d="m 144.87339,177.8946 11.38882,-6.55334 -0.95866,14.69008 -11.0674,6.79341 z"
         id="path106" /><path
         style="fill:#e8e8e8;fill-opacity:1;stroke:#0077bb;stroke-width:1;stroke-linecap:square;stroke-linejoin:round;stroke-dasharray:none;stroke-opacity:1"
         d="m 156.26221,171.34126 10.68895,-6.29885 -1.0301,14.64542 -10.61751,6.34351 z"
         id="path107" /><path
         style="fill:#e8e8e8;fill-opacity:1;stroke:#0077bb;stroke-width:1;stroke-linecap:square;stroke-linejoin:round;stroke-dasharray:none;stroke-opacity:1"
         d="m 166.95116,165.04241 10.30719,-5.85347 -1.39462,14.51529 -9.94267,5.9836 z"
         id="path108" /><path
         style="fill:#e8e8e8;fill-opacity:1;stroke:#0077bb;stroke-width:1;stroke-linecap:square;stroke-linejoin:round;stroke-dasharray:none;stroke-opacity:1"
         d="m 177.25835,159.18894 9.48008,-5.53534 -1.20197,14.24699 -9.67273,5.80364 z"
         id="path109" /><path
         style="fill:#e8e8e8;fill-opacity:1;stroke:#0077bb;stroke-width:1;stroke-linecap:square;stroke-linejoin:round;stroke-dasharray:none;stroke-opacity:1"
         d="m 186.73843,153.6536 8.97424,-4.77152 -1.42239,13.38324 -8.75382,5.63527 z"
         id="path110" /><path
         style="fill:#e8e8e8;fill-opacity:1;stroke:#0077bb;stroke-width:1;stroke-linecap:square;stroke-linejoin:round;stroke-dasharray:none;stroke-opacity:1"
         d="m 107.05558,215.63487 13.06623,-8.05359 -0.49489,15.25142 -12.67707,8.3675 z"
         id="path111" /><path
         style="fill:#e8e8e8;fill-opacity:1;stroke:#0077bb;stroke-width:1;stroke-linecap:square;stroke-linejoin:round;stroke-dasharray:none;stroke-opacity:1"
         d="m 120.12181,207.58128 12.3271,-7.19831 -0.49488,14.4866 -12.32711,7.96313 z"
         id="path112" /><path
         style="fill:#e8e8e8;fill-opacity:1;stroke:#0077bb;stroke-width:1;stroke-linecap:square;stroke-linejoin:round;stroke-dasharray:none;stroke-opacity:1"
         d="m 132.44891,200.38297 c 0,0 11.78724,-7.55822 11.78724,-7.55822 l -0.67484,14.75653 -11.60728,7.28829 z"
         id="path113" /><path
         style="fill:#e8e8e8;fill-opacity:1;stroke:#0077bb;stroke-width:1;stroke-linecap:square;stroke-linejoin:round;stroke-dasharray:none;stroke-opacity:1"
         d="m 144.23615,192.82475 11.0674,-6.79341 -0.94478,14.71155 -10.79746,6.83839 z"
         id="path114" /><path
         style="fill:#e8e8e8;fill-opacity:1;stroke:#0077bb;stroke-width:1;stroke-linecap:square;stroke-linejoin:round;stroke-dasharray:none;stroke-opacity:1"
         d="m 155.30355,186.03134 10.61751,-6.34351 -1.07975,14.17167 -10.48254,6.88339 z"
         id="path115" /><path
         style="fill:#e8e8e8;fill-opacity:1;stroke:#0077bb;stroke-width:1;stroke-linecap:square;stroke-linejoin:round;stroke-dasharray:none;stroke-opacity:1"
         d="m 165.92106,179.68783 9.94267,-5.9836 -1.21472,13.54182 -9.8077,6.61345 z"
         id="path116" /><path
         style="fill:#e8e8e8;fill-opacity:1;stroke:#0077bb;stroke-width:1;stroke-linecap:square;stroke-linejoin:round;stroke-dasharray:none;stroke-opacity:1"
         d="m 175.86373,173.70423 9.67273,-5.80364 -1.3047,13.27189 -9.58275,6.07357 z"
         id="path117" /><path
         style="fill:#e8e8e8;fill-opacity:1;stroke:#0077bb;stroke-width:1;stroke-linecap:square;stroke-linejoin:round;stroke-dasharray:none;stroke-opacity:1"
         d="m 185.53646,167.90059 8.75382,-5.63527 -1.44819,13.62611 -8.61033,5.28105 z"
         id="path118" /><path
         style="fill:#e8e8e8;fill-opacity:1;stroke:#0077bb;stroke-width:1;stroke-linecap:square;stroke-linejoin:round;stroke-dasharray:none;stroke-opacity:1"
         d="m 106.94985,231.2002 12.67707,-8.3675 -0.0871,14.51247 -12.68988,8.56712 z"
         id="path119" /><path
         style="fill:#e8e8e8;fill-opacity:1;stroke:#0077bb;stroke-width:1;stroke-linecap:square;stroke-linejoin:round;stroke-dasharray:none;stroke-opacity:1"
         d="m 119.62692,222.8327 12.32711,-7.96313 -0.62371,14.51566 -11.7905,7.95994 z"
         id="path120" /><path
         style="fill:#e8e8e8;fill-opacity:1;stroke:#0077bb;stroke-width:1;stroke-linecap:square;stroke-linejoin:round;stroke-dasharray:none;stroke-opacity:1"
         d="m 131.95403,214.86957 11.60728,-7.28829 -0.67232,14.00053 -11.55867,7.80342 z"
         id="path121" /><path
         style="fill:#e8e8e8;fill-opacity:1;stroke:#0077bb;stroke-width:1;stroke-linecap:square;stroke-linejoin:round;stroke-dasharray:none;stroke-opacity:1"
         d="m 143.56131,207.58128 10.79746,-6.83839 -0.96341,13.74592 -10.50637,7.093 z"
         id="path122" /><path
         style="fill:#e8e8e8;fill-opacity:1;stroke:#0077bb;stroke-width:1;stroke-linecap:square;stroke-linejoin:round;stroke-dasharray:none;stroke-opacity:1"
         d="m 154.35877,200.74289 10.48254,-6.88339 -0.92875,13.529 -10.5172,7.10031 z"
         id="path123"
         sodipodi:nodetypes="ccccc" /><path
         style="fill:#e8e8e8;fill-opacity:1;stroke:#0077bb;stroke-width:1;stroke-linecap:square;stroke-linejoin:round;stroke-dasharray:none;stroke-opacity:1"
         d="m 164.84131,193.8595 9.8077,-6.61345 -1.02095,13.58338 -9.7155,6.55907 z"
         id="path124" /><path
         style="fill:#e8e8e8;fill-opacity:1;stroke:#0077bb;stroke-width:1;stroke-linecap:square;stroke-linejoin:round;stroke-dasharray:none;stroke-opacity:1"
         d="m 174.64901,187.24605 9.58275,-6.07357 -1.30171,13.37704 -9.30199,6.27991 z"
         id="path125" /><path
         style="fill:#e8e8e8;fill-opacity:1;stroke:#0077bb;stroke-width:1;stroke-linecap:square;stroke-linejoin:round;stroke-dasharray:none;stroke-opacity:1"
         d="m 184.23176,181.17248 8.61033,-5.28105 -1.37011,12.89132 -8.54193,5.76677 z"
         id="path126" /><path
         style="fill:#ffffff;fill-opacity:1;stroke:#0077bb;stroke-width:1;stroke-linecap:square;stroke-linejoin:round;stroke-dasharray:none;stroke-opacity:1"
         d="M 8.8629198,71.420738 18.876635,75.220681 33.202208,71.443233 23.406172,67.755386 Z"
         id="path127" /><path
         style="fill:#ffffff;fill-opacity:1;stroke:#0077bb;stroke-width:1;stroke-linecap:square;stroke-linejoin:round;stroke-dasharray:none;stroke-opacity:1"
         d="M 18.876635,75.220681 29.391001,79.210608 44.179632,75.312325 33.202208,71.443233 Z"
         id="path128" /><path
         style="fill:#ffffff;fill-opacity:1;stroke:#0077bb;stroke-width:1;stroke-linecap:square;stroke-linejoin:round;stroke-dasharray:none;stroke-opacity:1"
         d="m 29.391001,79.210608 11.366423,4.313259 14.5346,-4.252471 -11.112392,-3.959071 z"
         id="path129" /><path
         style="fill:#f29966;fill-opacity:1;stroke:#0077bb;stroke-width:1;stroke-linecap:square;stroke-linejoin:round;stroke-dasharray:none;stroke-opacity:1"
         d="M 40.757424,83.523867 52.873626,88.121648 67.349195,83.63537 55.292024,79.271396 Z"
         id="path130" /><path
         style="fill:#f29966;fill-opacity:1;stroke:#0077bb;stroke-width:1;stroke-linecap:square;stroke-linejoin:round;stroke-dasharray:none;stroke-opacity:1"
         d="M 52.873626,88.121648 65.20513,92.801135 79.901247,88.134316 67.349195,83.63537 Z"
         id="path131" /><path
         style="fill:#ffffff;fill-opacity:1;stroke:#0077bb;stroke-width:1;stroke-linecap:square;stroke-linejoin:round;stroke-dasharray:none;stroke-opacity:1"
         d="m 65.20513,92.801135 13.339162,5.06186 14.583852,-5.004787 -13.226897,-4.723892 z"
         id="path132" /><path
         style="fill:#f29966;fill-opacity:1;stroke:#0077bb;stroke-width:1;stroke-linecap:square;stroke-linejoin:round;stroke-dasharray:none;stroke-opacity:1"
         d="M 78.544292,97.862995 92.706991,103.23737 107.47978,97.897025 93.128144,92.858208 Z"
         id="path133" /><path
         style="fill:#f29966;fill-opacity:1;stroke:#0077bb;stroke-width:1;stroke-linecap:square;stroke-linejoin:round;stroke-dasharray:none;stroke-opacity:1"
         d="m 92.706991,103.23737 15.073209,5.71989 14.66223,-5.65805 -14.96265,-5.402187 z"
         id="path134" /><path
         style="fill:#f29966;fill-opacity:1;stroke:#0077bb;stroke-width:1;stroke-linecap:square;stroke-linejoin:round;stroke-dasharray:none;stroke-opacity:1"
         d="m 107.47978,97.897023 13.90173,-5.083805 15.06057,5.083633 -13.99965,5.402359 z"
         id="path135" /><path
         style="fill:#f29966;fill-opacity:1;stroke:#0077bb;stroke-width:1;stroke-linecap:square;stroke-linejoin:round;stroke-dasharray:none;stroke-opacity:1"
         d="m 121.38151,92.813218 13.04694,-4.678902 14.69201,4.87004 -12.67838,4.892495 z"
         id="path136" /><path
         style="fill:#f29966;fill-opacity:1;stroke:#0077bb;stroke-width:1;stroke-linecap:square;stroke-linejoin:round;stroke-dasharray:none;stroke-opacity:1"
         d="m 134.42845,88.134316 12.41709,-4.543933 14.71915,4.611841 -12.44423,4.802132 z"
         id="path137" /><path
         style="fill:#f29966;fill-opacity:1;stroke:#0077bb;stroke-width:1;stroke-linecap:square;stroke-linejoin:round;stroke-dasharray:none;stroke-opacity:1"
         d="m 146.84554,83.590383 11.56228,-4.094041 14.89772,4.17517 -11.74085,4.530712 z"
         id="path138" /><path
         style="fill:#f29966;fill-opacity:1;stroke:#0077bb;stroke-width:1;stroke-linecap:square;stroke-linejoin:round;stroke-dasharray:none;stroke-opacity:1"
         d="m 158.40782,79.496342 10.97743,-4.004058 14.77901,3.988932 -10.85872,4.190296 z"
         id="path139" /><path
         style="fill:#f29966;fill-opacity:1;stroke:#0077bb;stroke-width:1;stroke-linecap:square;stroke-linejoin:round;stroke-dasharray:none;stroke-opacity:1"
         d="m 169.38525,75.492284 10.70748,-3.869092 14.5766,3.804192 -10.50507,4.053832 z"
         id="path140" /><path
         style="fill:#ffffff;fill-opacity:1;stroke:#0077bb;stroke-width:1;stroke-linecap:square;stroke-linejoin:round;stroke-dasharray:none;stroke-opacity:1"
         d="m 180.09273,71.623192 9.20516,-3.488939 14.60011,3.731858 -9.22867,3.561273 z"
         id="path141" /><path
         style="fill:#ffffff;fill-opacity:1;stroke:#0077bb;stroke-width:1;stroke-linecap:square;stroke-linejoin:round;stroke-dasharray:none;stroke-opacity:1"
         d="m 23.406172,67.755386 14.008969,-3.530698 9.643814,3.484422 -13.856747,3.734123 z"
         id="path142" /><path
         style="fill:#ffffff;fill-opacity:1;stroke:#0077bb;stroke-width:1;stroke-linecap:square;stroke-linejoin:round;stroke-dasharray:none;stroke-opacity:1"
         d="m 47.058955,67.70911 10.61751,3.644143 -13.496833,3.959072 -10.977424,-3.869092 z"
         id="path143" /><path
         style="fill:#ffffff;fill-opacity:1;stroke:#0077bb;stroke-width:1;stroke-linecap:square;stroke-linejoin:round;stroke-dasharray:none;stroke-opacity:1"
         d="M 57.676465,71.353253 69.103782,75.267335 55.292024,79.271396 44.179632,75.312325 Z"
         id="path144" /><path
         style="fill:#f29966;fill-opacity:1;stroke:#0077bb;stroke-width:1;stroke-linecap:square;stroke-linejoin:round;stroke-dasharray:none;stroke-opacity:1"
         d="M 69.103782,75.267335 80.980993,79.361376 67.349195,83.63537 55.292024,79.271396 Z"
         id="path145" /><path
         style="fill:#f29966;fill-opacity:1;stroke:#0077bb;stroke-width:1;stroke-linecap:square;stroke-linejoin:round;stroke-dasharray:none;stroke-opacity:1"
         d="M 80.980991,79.361376 93.668015,83.63537 79.901247,88.134316 67.349195,83.63537 Z"
         id="path146" /><path
         style="fill:#f29966;fill-opacity:1;stroke:#0077bb;stroke-width:1;stroke-linecap:square;stroke-linejoin:round;stroke-dasharray:none;stroke-opacity:1"
         d="M 93.668013,83.63537 107.11986,88.044336 93.128144,92.858208 79.901247,88.134316 Z"
         id="path147" /><path
         style="fill:#f29966;fill-opacity:1;stroke:#0077bb;stroke-width:1;stroke-linecap:square;stroke-linejoin:round;stroke-dasharray:none;stroke-opacity:1"
         d="m 93.128144,92.858208 13.991716,-4.813874 14.26165,4.768884 -13.90173,5.083805 z"
         id="path148" /><path
         style="fill:#ffffff;fill-opacity:1;stroke:#0077bb;stroke-width:1;stroke-linecap:square;stroke-linejoin:round;stroke-dasharray:none;stroke-opacity:1"
         d="m 37.415141,64.224688 12.871503,-3.24402 9.647804,3.343881 -12.875493,3.384561 z"
         id="path149" /><path
         style="fill:#ffffff;fill-opacity:1;stroke:#0077bb;stroke-width:1;stroke-linecap:square;stroke-linejoin:round;stroke-dasharray:none;stroke-opacity:1"
         d="m 47.058955,67.70911 12.875493,-3.384561 10.87982,3.499358 -13.137803,3.529346 z"
         id="path150" /><path
         style="fill:#ffffff;fill-opacity:1;stroke:#0077bb;stroke-width:1;stroke-linecap:square;stroke-linejoin:round;stroke-dasharray:none;stroke-opacity:1"
         d="m 70.814268,67.823907 11.32519,3.753856 -13.035676,3.689572 -11.427317,-3.914082 z"
         id="path151" /><path
         style="fill:#ffffff;fill-opacity:1;stroke:#0077bb;stroke-width:1;stroke-linecap:square;stroke-linejoin:round;stroke-dasharray:none;stroke-opacity:1"
         d="M 82.139458,71.577763 94.164525,75.395242 80.980991,79.361376 69.103782,75.267335 Z"
         id="path152" /><path
         style="fill:#f29966;fill-opacity:1;stroke:#0077bb;stroke-width:1;stroke-linecap:square;stroke-linejoin:round;stroke-dasharray:none;stroke-opacity:1"
         d="M 94.164525,75.39524 106.88946,79.403598 93.668013,83.63537 80.980991,79.361376 Z"
         id="path153" /><path
         style="fill:url(#linearGradient170);fill-opacity:0.74902;stroke:#0077bb;stroke-width:1;stroke-linecap:square;stroke-linejoin:round;stroke-dasharray:none;stroke-opacity:1"
         d="m 106.88946,79.403598 13.55205,4.199228 -13.32165,4.441508 -13.451847,-4.408964 z"
         id="path154" /><path
         style="fill:#f29966;fill-opacity:1;stroke:#0077bb;stroke-width:1;stroke-linecap:square;stroke-linejoin:round;stroke-dasharray:none;stroke-opacity:1"
         d="m 120.44151,83.602824 13.98694,4.531492 -13.04694,4.678902 -14.26165,-4.768884 z"
         id="path155" /><path
         style="fill:#ffffff;fill-opacity:1;stroke:#0077bb;stroke-width:1;stroke-linecap:square;stroke-linejoin:round;stroke-dasharray:none;stroke-opacity:1"
         d="m 50.286644,60.980668 12.434279,-3.133825 9.55671,3.423721 -12.343185,3.053985 z"
         id="path156" /><path
         style="fill:#ffffff;fill-opacity:1;stroke:#0077bb;stroke-width:1;stroke-linecap:square;stroke-linejoin:round;stroke-dasharray:none;stroke-opacity:1"
         d="m 74.347813,54.916506 9.827635,2.981952 -11.897815,3.372106 -9.55671,-3.423721 z"
         id="path157" /><path
         style="fill:#ffffff;fill-opacity:1;stroke:#0077bb;stroke-width:1;stroke-linecap:square;stroke-linejoin:round;stroke-dasharray:none;stroke-opacity:1"
         d="M 84.175448,57.898458 95.373393,55.09897 85.46498,52.114635 74.347813,54.916506 Z"
         id="path158" /><path
         style="fill:#ffffff;fill-opacity:1;stroke:#0077bb;stroke-width:1;stroke-linecap:square;stroke-linejoin:round;stroke-dasharray:none;stroke-opacity:1"
         d="m 85.46498,52.114635 10.654784,-2.685338 9.897586,2.623407 -10.643957,3.046266 z"
         id="path159"
         sodipodi:nodetypes="ccccc" /><path
         style="fill:#ffffff;fill-opacity:1;stroke:#0077bb;stroke-width:1;stroke-linecap:square;stroke-linejoin:round;stroke-dasharray:none;stroke-opacity:1"
         d="m 96.119764,49.429296 10.069826,-2.537909 9.16624,2.342933 -9.33848,2.818384 z"
         id="path160" /><path
         style="fill:#ffffff;fill-opacity:1;stroke:#0077bb;stroke-width:1;stroke-linecap:square;stroke-linejoin:round;stroke-dasharray:none;stroke-opacity:1"
         d="m 70.814268,67.823907 56.425852,-15.551906 -0.11945,-0.03053 -0.0458,-0.01169"
         id="path161" /><path
         style="fill:#ffffff;fill-opacity:1;stroke:#0077bb;stroke-width:1;stroke-linecap:square;stroke-linejoin:round;stroke-dasharray:none;stroke-opacity:1"
         d="M 82.139458,71.577763 138.25776,55.08816"
         id="path162" /><path
         style="fill:#ffffff;fill-opacity:1;stroke:#0077bb;stroke-width:1;stroke-linecap:square;stroke-linejoin:round;stroke-dasharray:none;stroke-opacity:1"
         d="M 94.164525,75.39524 150.42942,58.199292"
         id="path163" /><path
         style="fill:#ffffff;fill-opacity:1;stroke:#0077bb;stroke-width:1;stroke-linecap:square;stroke-linejoin:round;stroke-dasharray:none;stroke-opacity:1"
         d="M 106.88946,79.403598 162.86782,61.378607"
         id="path164" /><path
         style="fill:none;fill-opacity:0.74902;stroke:#0077bb;stroke-width:1;stroke-linecap:square;stroke-linejoin:round;stroke-dasharray:none;stroke-opacity:1"
         d="M 120.44151,83.602824 176.0229,64.741104"
         id="path165" /><path
         style="fill:none;fill-opacity:0.74902;stroke:#0077bb;stroke-width:1;stroke-linecap:square;stroke-linejoin:round;stroke-dasharray:none;stroke-opacity:1"
         d="M 72.277633,61.270564 146.84554,83.590383"
         id="path166" /><path
         style="fill:#ffffff;fill-opacity:1;stroke:#0077bb;stroke-width:1;stroke-linecap:square;stroke-linejoin:round;stroke-dasharray:none;stroke-opacity:1"
         d="M 84.175448,57.898458 158.40782,79.496342"
         id="path167" /><path
         style="fill:#ffffff;fill-opacity:1;stroke:#0077bb;stroke-width:1;stroke-linecap:square;stroke-linejoin:round;stroke-dasharray:none;stroke-opacity:1"
         d="M 95.373393,55.09897 169.38525,75.492284"
         id="path168" /><path
         style="fill:#ffffff;fill-opacity:1;stroke:#0077bb;stroke-width:1;stroke-linecap:square;stroke-linejoin:round;stroke-dasharray:none;stroke-opacity:1"
         d="m 106.01735,52.052704 74.07538,19.570488"
         id="path169" /><path
         style="fill:#ffffff;fill-opacity:1;stroke:#0077bb;stroke-width:1;stroke-linecap:square;stroke-linejoin:round;stroke-dasharray:none;stroke-opacity:1"
         d="m 59.934448,64.324549 12.343185,-3.053985 10.538981,3.154548 -12.002346,3.398795 z"
         id="path170" /><path
         style="fill:#ffffff;fill-opacity:1;stroke:#0077bb;stroke-width:1;stroke-linecap:square;stroke-linejoin:round;stroke-dasharray:none;stroke-opacity:1"
         d="m 72.277633,61.270564 11.897815,-3.372106 10.829557,3.150857 -12.188393,3.375797 z"
         id="path171" /><path
         style="fill:#ffffff;fill-opacity:1;stroke:#0077bb;stroke-width:1;stroke-linecap:square;stroke-linejoin:round;stroke-dasharray:none;stroke-opacity:1"
         d="M 84.175448,57.898458 95.373393,55.09897 105.8451,57.984358 95.005003,61.049315 Z"
         id="path172" /><path
         style="fill:#ffffff;fill-opacity:1;stroke:#0077bb;stroke-width:1;stroke-linecap:square;stroke-linejoin:round;stroke-dasharray:none;stroke-opacity:1"
         d="m 95.373393,55.09897 10.643957,-3.046266 11.30291,2.953374 -11.47516,2.97828 z"
         id="path173" /><path
         style="fill:#ffffff;fill-opacity:1;stroke:#0077bb;stroke-width:1;stroke-linecap:square;stroke-linejoin:round;stroke-dasharray:none;stroke-opacity:1"
         d="m 106.01735,52.052704 9.33848,-2.818384 11.71904,2.995461 -9.75461,2.776297 z"
         id="path174" /><path
         style="fill:#ffffff;fill-opacity:1;stroke:#0077bb;stroke-width:1;stroke-linecap:square;stroke-linejoin:round;stroke-dasharray:none;stroke-opacity:1"
         d="m 70.814268,67.823907 12.002344,-3.398795 11.35445,3.398637 -12.031604,3.754014 z"
         id="path175" /><path
         style="fill:#ffffff;fill-opacity:1;stroke:#0077bb;stroke-width:1;stroke-linecap:square;stroke-linejoin:round;stroke-dasharray:none;stroke-opacity:1"
         d="M 82.139458,71.577763 94.17106,67.823749 106.69975,71.573863 94.164525,75.39524 Z"
         id="path176" /><path
         style="fill:#ffffff;fill-opacity:1;stroke:#0077bb;stroke-width:1;stroke-linecap:square;stroke-linejoin:round;stroke-dasharray:none;stroke-opacity:1"
         d="m 82.816612,64.425112 12.188391,-3.375797 11.383287,3.311961 -12.21723,3.462473 z"
         id="path177" /><path
         style="fill:#ffffff;fill-opacity:1;stroke:#0077bb;stroke-width:1;stroke-linecap:square;stroke-linejoin:round;stroke-dasharray:none;stroke-opacity:1"
         d="m 95.005003,61.049315 10.840097,-3.064957 11.45547,3.15645 -10.91228,3.220468 z"
         id="path178" /><path
         style="fill:#ffffff;fill-opacity:1;stroke:#0077bb;stroke-width:1;stroke-linecap:square;stroke-linejoin:round;stroke-dasharray:none;stroke-opacity:1"
         d="m 105.8451,57.984358 11.47516,-2.97828 10.80437,2.887303 -10.82406,3.247427 z"
         id="path179" /><path
         style="fill:#ffffff;fill-opacity:1;stroke:#0077bb;stroke-width:1;stroke-linecap:square;stroke-linejoin:round;stroke-dasharray:none;stroke-opacity:1"
         d="m 117.32026,55.006078 9.75461,-2.776297 11.18289,2.858379 -10.13313,2.805221 z"
         id="path180" /><path
         style="fill:#ffffff;fill-opacity:1;stroke:#0077bb;stroke-width:1;stroke-linecap:square;stroke-linejoin:round;stroke-dasharray:none;stroke-opacity:1"
         d="m 94.17106,67.823749 12.21723,-3.462473 12.09136,3.517977 -11.7799,3.69461 z"
         id="path181" /><path
         style="fill:#ffffff;fill-opacity:1;stroke:#0077bb;stroke-width:1;stroke-linecap:square;stroke-linejoin:round;stroke-dasharray:none;stroke-opacity:1"
         d="m 106.38829,64.361276 10.91228,-3.220468 12.19095,3.359112 -11.01187,3.379333 z"
         id="path182" /><path
         style="fill:#ffffff;fill-opacity:1;stroke:#0077bb;stroke-width:1;stroke-linecap:square;stroke-linejoin:round;stroke-dasharray:none;stroke-opacity:1"
         d="m 117.30057,61.140808 10.82406,-3.247427 12.45814,3.2914 -11.09125,3.315139 z"
         id="path183" /><path
         style="fill:#ffffff;fill-opacity:1;stroke:#0077bb;stroke-width:1;stroke-linecap:square;stroke-linejoin:round;stroke-dasharray:none;stroke-opacity:1"
         d="m 128.12463,57.893381 10.13313,-2.805221 12.17166,3.111132 -9.84665,2.985489 z"
         id="path184" /><path
         style="fill:#f29966;fill-opacity:1;stroke:#0077bb;stroke-width:1;stroke-linecap:square;stroke-linejoin:round;stroke-dasharray:none;stroke-opacity:1"
         d="m 94.164525,75.39524 12.535225,-3.821377 12.49488,3.739991 -12.30517,4.089744 z"
         id="path185" /><path
         style="fill:#ffffff;fill-opacity:1;stroke:#0077bb;stroke-width:1;stroke-linecap:square;stroke-linejoin:round;stroke-dasharray:none;stroke-opacity:1"
         d="m 106.69975,71.573863 11.7799,-3.69461 12.15504,3.878397 -11.44006,3.556204 z"
         id="path186" /><path
         style="fill:#ffffff;fill-opacity:1;stroke:#0077bb;stroke-width:1;stroke-linecap:square;stroke-linejoin:round;stroke-dasharray:none;stroke-opacity:1"
         d="m 118.47965,67.879253 11.01187,-3.379333 12.59952,3.568793 -11.45635,3.688937 z"
         id="path187" /><path
         style="fill:#ffffff;fill-opacity:1;stroke:#0077bb;stroke-width:1;stroke-linecap:square;stroke-linejoin:round;stroke-dasharray:none;stroke-opacity:1"
         d="m 129.49152,64.49992 11.09125,-3.315139 12.31519,3.404111 -10.80692,3.479821 z"
         id="path188" /><path
         style="fill:#ffffff;fill-opacity:1;stroke:#0077bb;stroke-width:1;stroke-linecap:square;stroke-linejoin:round;stroke-dasharray:none;stroke-opacity:1"
         d="m 140.58277,61.184781 9.84665,-2.985489 12.4384,3.179315 -9.96986,3.210285 z"
         id="path189" /><path
         style="fill:#f29966;fill-opacity:1;stroke:#0077bb;stroke-width:1;stroke-linecap:square;stroke-linejoin:round;stroke-dasharray:none;stroke-opacity:1"
         d="m 93.668013,83.63537 13.221447,-4.231772 13.11115,4.062608 -12.17893,4.344136 z"
         id="path190" /><path
         style="fill:#f29966;fill-opacity:1;stroke:#0077bb;stroke-width:1;stroke-linecap:square;stroke-linejoin:round;stroke-dasharray:none;stroke-opacity:1"
         d="m 106.88946,79.403598 12.30517,-4.089744 13.68179,4.069141 -12.43491,4.219829 z"
         id="path191" /><path
         style="fill:#f29966;fill-opacity:1;stroke:#0077bb;stroke-width:1;stroke-linecap:square;stroke-linejoin:round;stroke-dasharray:none;stroke-opacity:1"
         d="m 119.19463,75.313854 11.44006,-3.556204 13.44865,3.570989 -11.20692,4.054356 z"
         id="path192" /><path
         style="fill:#ffffff;fill-opacity:1;stroke:#0077bb;stroke-width:1;stroke-linecap:square;stroke-linejoin:round;stroke-dasharray:none;stroke-opacity:1"
         d="m 130.63469,71.75765 11.45635,-3.688937 13.67501,3.546618 -11.68271,3.713308 z"
         id="path193" /><path
         style="fill:#ffffff;fill-opacity:1;stroke:#0077bb;stroke-width:1;stroke-linecap:square;stroke-linejoin:round;stroke-dasharray:none;stroke-opacity:1"
         d="m 142.09104,68.068713 10.80692,-3.479821 13.26678,3.354567 -10.39869,3.671872 z"
         id="path194" /><path
         style="fill:#ffffff;fill-opacity:1;stroke:#0077bb;stroke-width:1;stroke-linecap:square;stroke-linejoin:round;stroke-dasharray:none;stroke-opacity:1"
         d="m 152.89796,64.588892 9.37969,-3.361137 13.74525,3.513349 -9.85816,3.202355 z"
         id="path195" /><path
         style="fill:#f29966;fill-opacity:1;stroke:#0077bb;stroke-width:1;stroke-linecap:square;stroke-linejoin:round;stroke-dasharray:none;stroke-opacity:1"
         d="m 120.44151,83.602824 12.43491,-4.219829 13.96912,4.207388 -12.41709,4.543933 z"
         id="path196" /><path
         style="fill:#f29966;fill-opacity:1;stroke:#0077bb;stroke-width:1;stroke-linecap:square;stroke-linejoin:round;stroke-dasharray:none;stroke-opacity:1"
         d="m 132.87642,79.382995 11.20692,-4.054356 14.32448,4.167703 -11.56228,4.094041 z"
         id="path197" /><path
         style="fill:#f29966;fill-opacity:1;stroke:#0077bb;stroke-width:1;stroke-linecap:square;stroke-linejoin:round;stroke-dasharray:none;stroke-opacity:1"
         d="m 144.08334,75.328639 11.68271,-3.713308 13.6192,3.876953 -10.97743,4.004058 z"
         id="path198" /><path
         style="fill:#ffffff;fill-opacity:1;stroke:#0077bb;stroke-width:1;stroke-linecap:square;stroke-linejoin:round;stroke-dasharray:none;stroke-opacity:1"
         d="m 155.76605,71.615331 10.39869,-3.671872 13.92799,3.679733 -10.70748,3.869092 z"
         id="path199" /><path
         style="fill:#ffffff;fill-opacity:1;stroke:#0077bb;stroke-width:1;stroke-linecap:square;stroke-linejoin:round;stroke-dasharray:none;stroke-opacity:1"
         d="m 166.65108,67.785474 9.37182,-3.04437 13.27499,3.393149 -9.20516,3.488939 z"
         id="path200" /></g><g
       inkscape:label=""
       transform="matrix(3.4383348,0,0,3.4383348,22.064068,247.99976)"
       id="g207">
  
  <g
   id="g208"><g
     fill="#000000"
     fill-opacity="1"
     id="g11"
     transform="matrix(0.352778,0,0,0.352778,-1.15508,-0.70657)"
     style="fill:#ee7733;fill-opacity:1">
    <g
   id="use10"
   transform="translate(1.993,19.205999)"
   style="fill:#ee7733;fill-opacity:1">
      <path
   d="M 4.90625,-7.953125 H 8.875 c 3.1875,0 5.515625,-2.078125 5.515625,-4.4375 0,-2.359375 -2.265625,-4.53125 -5.515625,-4.53125 H 1.28125 v 0.640625 c 1.71875,0 1.984375,0 1.984375,1.109375 v 13.40625 c 0,1.125 -0.265625,1.125 -1.984375,1.125 V 0 C 2,-0.046875 3.328125,-0.046875 4.09375,-0.046875 c 0.765625,0 2.078125,0 2.796875,0.046875 v -0.640625 c -1.71875,0 -1.984375,0 -1.984375,-1.125 z M 4.859375,-8.46875 v -6.84375 c 0,-0.84375 0.046875,-0.96875 1.03125,-0.96875 H 8.40625 c 3.1875,0 4.109375,1.828125 4.109375,3.890625 0,2.25 -1.09375,3.921875 -4.109375,3.921875 z m 0,0"
   id="path20-1"
   style="fill:#ee7733;fill-opacity:1" />
    </g>
  </g><g
     fill="#000000"
     fill-opacity="1"
     id="g14"
     transform="matrix(0.352778,0,0,0.352778,-1.15508,-0.70657)">
    <g
   id="use11"
   transform="translate(16.919792,19.205999)">
      <path
   d="m 10.6875,-5.296875 c 0,-3.171875 -2.3125,-5.65625 -5.015625,-5.65625 -2.703125,0 -5,2.484375 -5,5.65625 0,3.109375 2.296875,5.5 5,5.5 2.703125,0 5.015625,-2.390625 5.015625,-5.5 z M 5.671875,-0.25 c -1.15625,0 -2.15625,-0.6875 -2.71875,-1.65625 C 2.328125,-3.015625 2.25,-4.40625 2.25,-5.5 c 0,-1.046875 0.046875,-2.328125 0.703125,-3.453125 0.484375,-0.8125 1.453125,-1.609375 2.71875,-1.609375 1.125,0 2.0625,0.625 2.65625,1.5 0.765625,1.15625 0.765625,2.796875 0.765625,3.5625 0,0.96875 -0.046875,2.453125 -0.71875,3.640625 C 7.6875,-0.71875 6.609375,-0.25 5.671875,-0.25 Z m 0,0"
   id="path21-1" />
    </g>
    <g
   id="use12"
   transform="translate(28.287155,19.205999)">
      <path
   d="m 3.796875,-17.203125 -2.953125,0.28125 v 0.640625 c 1.453125,0 1.6875,0.15625 1.6875,1.34375 v 13.234375 c 0,0.9375 -0.109375,1.0625 -1.6875,1.0625 V 0 c 0.59375,-0.046875 1.6875,-0.046875 2.296875,-0.046875 0.65625,0 1.734375,0 2.34375,0.046875 v -0.640625 c -1.59375,0 -1.6875,-0.109375 -1.6875,-1.0625 z m 0,0"
   id="path22-1" />
    </g>
    <g
   id="use13"
   transform="translate(34.474014,19.205999)">
      <path
   d="M 9.671875,-8.46875 C 10.28125,-9.984375 11.40625,-10.015625 11.75,-10.015625 v -0.640625 c -0.46875,0.03125 -1.09375,0.04687 -1.5625,0.04687 -0.515625,0 -1.34375,0 -1.84375,-0.04687 v 0.640625 C 9.296875,-9.9375 9.3125,-9.25 9.3125,-9.046875 c 0,0.25 -0.046875,0.375 -0.171875,0.671875 L 6.4375,-1.6875 3.5,-8.921875 c -0.125,-0.296875 -0.125,-0.46875 -0.125,-0.5 0,-0.546875 0.5625,-0.59375 1.15625,-0.59375 V -10.65625 C 3.9375,-10.60938 2.875,-10.60938 2.25,-10.60938 c -0.65625,0 -1.453125,0 -2,-0.04687 v 0.640625 c 1.34375,0 1.484375,0.125 1.8125,0.921875 L 5.75,0 C 4.640625,2.921875 3.984375,4.640625 2.421875,4.640625 2.15625,4.640625 1.53125,4.5625 1.09375,4.109375 1.65625,4.0625 1.90625,3.71875 1.90625,3.296875 1.90625,2.875 1.609375,2.5 1.109375,2.5 c -0.546875,0 -0.8125,0.375 -0.8125,0.828125 0,0.984375 1.015625,1.703125 2.125,1.703125 1.4375,0 2.34375,-1.390625 2.828125,-2.625 z m 0,0"
   id="path23-1" />
    </g>
    <g
   id="use14"
   transform="translate(46.488323,19.205999)"
   style="fill:#ee7733;fill-opacity:1">
      <path
   d="M 14.625,-14.640625 C 14.84375,-15.1875 15.234375,-16.25 16.90625,-16.28125 v -0.640625 c -0.578125,0.04687 -1.21875,0.04687 -1.84375,0.04687 -0.59375,0 -1.609375,0 -2.171875,-0.04687 v 0.640625 c 1.234375,0.07813 1.28125,0.9375 1.28125,1.09375 0,0.265625 -0.07813,0.4375 -0.140625,0.640625 L 9.140625,-1.828125 4.046875,-15.1875 c -0.078125,-0.171875 -0.125,-0.296875 -0.125,-0.421875 0,-0.671875 0.984375,-0.671875 1.5,-0.671875 v -0.640625 C 4.640625,-16.875 3.46875,-16.875 2.65625,-16.875 c -0.65625,0 -1.8125,0 -2.40625,-0.04687 v 0.640625 c 1.4375,0 1.703125,0.09375 2,0.890625 L 8.15625,0 C 8.28125,0.34375 8.296875,0.390625 8.578125,0.390625 8.84375,0.390625 8.875,0.34375 9,0 Z m 0,0"
   id="path24-1"
   style="fill:#ee7733;fill-opacity:1" />
    </g>
  </g><g
     fill="#000000"
     fill-opacity="1"
     id="g20"
     transform="matrix(0.352778,0,0,0.352778,-1.15508,-0.70657)">
    <g
   id="use15"
   transform="translate(61.739826,19.205999)">
      <path
   d="m 9.4375,-5.828125 c 0.109375,-0.09375 0.109375,-0.140625 0.109375,-0.390625 0,-2.53125 -1.34375,-4.734375 -4.171875,-4.734375 -2.625,0 -4.703125,2.5 -4.703125,5.546875 0,3.21875 2.34375,5.609375 4.984375,5.609375 2.765625,0 3.859375,-2.625 3.859375,-3.15625 C 9.515625,-3.125 9.375,-3.125 9.3125,-3.125 9.140625,-3.125 9.125,-3.078125 9.015625,-2.78125 8.46875,-1.09375 7.109375,-0.25 5.828125,-0.25 4.765625,-0.25 3.6875,-0.84375 3.015625,-1.9375 2.25,-3.203125 2.25,-4.65625 2.25,-5.828125 Z M 2.28125,-6.1875 c 0.171875,-3.578125 2.078125,-4.375 3.078125,-4.375 1.671875,0 2.8125,1.59375 2.84375,4.375 z m 0,0"
   id="path25-1" />
    </g>
    <g
   id="use16"
   transform="translate(71.813301,19.205999)">
      <path
   d="m 8.65625,-8.671875 c -0.484375,0 -1.171875,0 -1.171875,0.859375 0,0.703125 0.5625,0.90625 0.890625,0.90625 0.171875,0 0.890625,-0.078125 0.890625,-0.953125 0,-1.75 -1.6875,-3.09375 -3.59375,-3.09375 -2.625,0 -4.859375,2.421875 -4.859375,5.59375 0,3.296875 2.328125,5.5625 4.859375,5.5625 3.078125,0 3.84375,-2.859375 3.84375,-3.125 0,-0.09375 -0.03125,-0.171875 -0.203125,-0.171875 -0.171875,0 -0.1875,0.015625 -0.296875,0.34375 -0.640625,2 -2.046875,2.5 -3.125,2.5 -1.578125,0 -3.484375,-1.453125 -3.484375,-5.125 0,-3.765625 1.828125,-5.125 3.296875,-5.125 0.96875,0 2.40625,0.46875 2.953125,1.828125 z m 0,0"
   id="path26-1" />
    </g>
    <g
   id="use17"
   transform="translate(81.88678,19.205999)"
   style="fill:#0077bb;fill-opacity:1">
      <path
   d="M 5.171875,-16.53125 C 5.03125,-16.90625 5,-16.921875 4.484375,-16.921875 H 1.3125 v 0.640625 c 1.703125,0 1.984375,0 1.984375,1.109375 v 12.75 c 0,0.609375 0,1.78125 -1.984375,1.78125 V 0 c 0.578125,-0.046875 1.609375,-0.046875 2.234375,-0.046875 0.609375,0 1.65625,0 2.234375,0.046875 v -0.640625 c -1.984375,0 -1.984375,-1.171875 -1.984375,-1.78125 V -16.1875 H 3.8125 L 9.640625,-0.390625 C 9.734375,-0.15625 9.78125,0 9.984375,0 c 0.203125,0 0.25,-0.15625 0.34375,-0.390625 l 5.875,-15.921875 h 0.03125 v 14.546875 c 0,1.125 -0.28125,1.125 -1.984375,1.125 V 0 c 0.671875,-0.046875 2,-0.046875 2.71875,-0.046875 0.71875,0 2.09375,0 2.75,0.046875 v -0.640625 c -1.703125,0 -1.96875,0 -1.96875,-1.125 v -13.40625 c 0,-1.109375 0.265625,-1.109375 1.96875,-1.109375 v -0.640625 h -3.140625 c -0.515625,0 -0.546875,0.01563 -0.6875,0.390625 L 10.53125,-2 Z m 0,0"
   id="path27-1"
   style="fill:#0077bb;fill-opacity:1" />
    </g>
    <g
   id="use18"
   transform="translate(102.95582,19.205999)">
      <path
   d="m 9.4375,-5.828125 c 0.109375,-0.09375 0.109375,-0.140625 0.109375,-0.390625 0,-2.53125 -1.34375,-4.734375 -4.171875,-4.734375 -2.625,0 -4.703125,2.5 -4.703125,5.546875 0,3.21875 2.34375,5.609375 4.984375,5.609375 2.765625,0 3.859375,-2.625 3.859375,-3.15625 C 9.515625,-3.125 9.375,-3.125 9.3125,-3.125 9.140625,-3.125 9.125,-3.078125 9.015625,-2.78125 8.46875,-1.09375 7.109375,-0.25 5.828125,-0.25 4.765625,-0.25 3.6875,-0.84375 3.015625,-1.9375 2.25,-3.203125 2.25,-4.65625 2.25,-5.828125 Z M 2.28125,-6.1875 c 0.171875,-3.578125 2.078125,-4.375 3.078125,-4.375 1.671875,0 2.8125,1.59375 2.84375,4.375 z m 0,0"
   id="path28-1" />
    </g>
    <g
   id="use19"
   transform="translate(113.02929,19.205999)">
      <path
   d="m 7.65625,-10.453125 c 0,-0.453125 -0.03125,-0.46875 -0.171875,-0.46875 -0.09375,0 -0.125,0.01563 -0.421875,0.390625 -0.078125,0.09375 -0.296875,0.34375 -0.375,0.4375 -0.796875,-0.828125 -1.90625,-0.859375 -2.328125,-0.859375 -2.75,0 -3.734375,1.4375 -3.734375,2.875 0,2.234375 2.515625,2.75 3.234375,2.90625 1.5625,0.3125 2.109375,0.40625 2.640625,0.859375 0.3125,0.296875 0.859375,0.84375 0.859375,1.734375 0,1.046875 -0.59375,2.375 -2.875,2.375 -2.15625,0 -2.921875,-1.625 -3.375,-3.8125 -0.0625,-0.34375 -0.0625,-0.375 -0.265625,-0.375 -0.203125,0 -0.21875,0.03125 -0.21875,0.53125 v 3.5625 c 0,0.453125 0.015625,0.46875 0.171875,0.46875 0.125,0 0.140625,-0.015625 0.265625,-0.21875 0.15625,-0.21875 0.53125,-0.828125 0.671875,-1.0625 0.5,0.65625 1.359375,1.3125 2.75,1.3125 C 6.9375,0.203125 8.25,-1.140625 8.25,-3.078125 8.25,-4.34375 7.578125,-5 7.265625,-5.296875 6.515625,-6.078125 5.65625,-6.25 4.609375,-6.4375 3.25,-6.734375 1.515625,-7.09375 1.515625,-8.59375 c 0,-0.65625 0.34375,-2.015625 2.84375,-2.015625 2.65625,0 2.796875,2.484375 2.859375,3.28125 0.015625,0.109375 0.140625,0.140625 0.21875,0.140625 0.21875,0 0.21875,-0.078125 0.21875,-0.5 z m 0,0"
   id="path29-1" />
    </g>
    <g
   id="use20"
   transform="translate(121.93777,19.205999)">
      <path
   d="m 10.28125,-7.53125 c 0,-1.265625 -0.25,-3.328125 -3.171875,-3.328125 -2.03125,0 -3.015625,1.640625 -3.3125,2.453125 h -0.03125 v -8.796875 l -2.953125,0.28125 v 0.640625 c 1.46875,0 1.6875,0.15625 1.6875,1.34375 v 13.234375 c 0,0.9375 -0.09375,1.0625 -1.6875,1.0625 V 0 C 1.40625,-0.046875 2.5,-0.046875 3.140625,-0.046875 c 0.65625,0 1.765625,0 2.359375,0.046875 v -0.640625 c -1.578125,0 -1.6875,-0.109375 -1.6875,-1.0625 V -6.46875 c 0,-2.28125 1.390625,-3.984375 3.125,-3.984375 1.828125,0 2.03125,1.625 2.03125,2.828125 v 5.921875 c 0,0.9375 -0.09375,1.0625 -1.6875,1.0625 V 0 c 0.59375,-0.046875 1.6875,-0.046875 2.328125,-0.046875 0.65625,0 1.765625,0 2.359375,0.046875 v -0.640625 c -1.578125,0 -1.6875,-0.109375 -1.6875,-1.0625 z m 0,0"
   id="path30-1" />
    </g>
  </g></g>
</g></g></svg>
